<?xml version="1.0" encoding="UTF-8" standalone="no"?>
<!-- Generator: Adobe Illustrator 16.0.3, SVG Export Plug-In . SVG Version: 6.00 Build 0)  -->

<svg
   xmlns:dc="http://purl.org/dc/elements/1.1/"
   xmlns:cc="http://creativecommons.org/ns#"
   xmlns:rdf="http://www.w3.org/1999/02/22-rdf-syntax-ns#"
   xmlns:svg="http://www.w3.org/2000/svg"
   xmlns="http://www.w3.org/2000/svg"
   xmlns:xlink="http://www.w3.org/1999/xlink"
   xmlns:sodipodi="http://sodipodi.sourceforge.net/DTD/sodipodi-0.dtd"
   xmlns:inkscape="http://www.inkscape.org/namespaces/inkscape"
   version="1.1"
   id="Layer_1"
   x="0px"
   y="0px"
   width="107.143px"
   height="165.584px"
   viewBox="0 0 107.143 165.584"
   enable-background="new 0 0 107.143 165.584"
   xml:space="preserve"
   inkscape:version="0.91 r13725"
   sodipodi:docname="ice-cream-vanilla.svg"><metadata
     id="metadata61"><rdf:RDF><cc:Work
         rdf:about=""><dc:format>image/svg+xml</dc:format><dc:type
           rdf:resource="http://purl.org/dc/dcmitype/StillImage" /><dc:title></dc:title></cc:Work></rdf:RDF></metadata><defs
     id="defs59" /><sodipodi:namedview
     pagecolor="#ffffff"
     bordercolor="#666666"
     borderopacity="1"
     objecttolerance="10"
     gridtolerance="10"
     guidetolerance="10"
     inkscape:pageopacity="0"
     inkscape:pageshadow="2"
     inkscape:window-width="1122"
     inkscape:window-height="868"
     id="namedview57"
     showgrid="false"
     inkscape:zoom="1.4252585"
     inkscape:cx="53.571499"
     inkscape:cy="82.792"
     inkscape:window-x="0"
     inkscape:window-y="27"
     inkscape:window-maximized="0"
     inkscape:current-layer="Layer_1" /><path
     style="fill:none;stroke:#000000;stroke-width:6;stroke-linecap:round;stroke-linejoin:round;stroke-miterlimit:10"
     inkscape:connector-curvature="0"
     id="path5"
     d="m 101.191,53.803 c 0,-6.592 -5.198,-11.957 -11.717,-12.255 C 89.469,21.88 73.524,5.936 53.855,5.936 c -19.659,0 -35.599,15.929 -35.618,35.584 -10e-4,0 -10e-4,0 -10e-4,0 -6.784,0 -12.283,5.5 -12.283,12.283 0,5.055 3.056,9.394 7.42,11.277 -0.027,0.333 -0.051,0.666 -0.051,1.006 0,5.431 3.527,10.029 8.414,11.651 l 32.135,81.911 31.712,-81.976 c 4.794,-1.673 8.239,-6.222 8.239,-11.587 0,-0.34 -0.023,-0.673 -0.051,-1.006 4.364,-1.883 7.42,-6.222 7.42,-11.276 z"
     stroke-miterlimit="10" /><polygon
     style="fill:#fdae6c"
     id="polygon7"
     points="96.131,50.403 11.012,50.403 53.871,159.648 " /><g
     id="g9"><defs
       id="defs11"><polygon
         points="96.131,50.403 11.012,50.403 53.871,159.648 "
         id="SVGID_1_" /></defs><clipPath
       id="SVGID_2_"><use
         height="100%"
         width="100%"
         y="0"
         x="0"
         style="overflow:visible"
         id="use15"
         overflow="visible"
         xlink:href="#SVGID_1_" /></clipPath><g
       id="g17"
       clip-path="url(#SVGID_2_)"><g
         id="g19"><line
           style="fill:none;stroke:#e9996c;stroke-width:3;stroke-miterlimit:10"
           id="line21"
           y2="35.709999"
           x2="76.625"
           y1="84.366997"
           x1="11.012"
           stroke-miterlimit="10" /><line
           style="fill:none;stroke:#e9996c;stroke-width:3;stroke-miterlimit:10"
           id="line23"
           y2="46.464001"
           x2="81.008003"
           y1="95.121002"
           x1="15.395"
           stroke-miterlimit="10" /><line
           style="fill:none;stroke:#e9996c;stroke-width:3;stroke-miterlimit:10"
           id="line25"
           y2="57.219002"
           x2="85.390999"
           y1="105.876"
           x1="19.778"
           stroke-miterlimit="10" /><line
           style="fill:none;stroke:#e9996c;stroke-width:3;stroke-miterlimit:10"
           id="line27"
           y2="67.973999"
           x2="89.775002"
           y1="116.631"
           x1="24.162001"
           stroke-miterlimit="10" /><line
           style="fill:none;stroke:#e9996c;stroke-width:3;stroke-miterlimit:10"
           id="line29"
           y2="78.727997"
           x2="94.157997"
           y1="127.385"
           x1="28.544001"
           stroke-miterlimit="10" /><line
           style="fill:none;stroke:#e9996c;stroke-width:3;stroke-miterlimit:10"
           id="line31"
           y2="89.482002"
           x2="98.541"
           y1="138.14"
           x1="32.926998"
           stroke-miterlimit="10" /><line
           style="fill:none;stroke:#e9996c;stroke-width:3;stroke-miterlimit:10"
           id="line33"
           y2="100.237"
           x2="102.924"
           y1="148.894"
           x1="37.311001"
           stroke-miterlimit="10" /><line
           style="fill:none;stroke:#e9996c;stroke-width:3;stroke-miterlimit:10"
           id="line35"
           y2="110.991"
           x2="107.307"
           y1="159.64799"
           x1="41.694"
           stroke-miterlimit="10" /></g><g
         id="g37"><line
           style="fill:none;stroke:#e9996c;stroke-width:3;stroke-miterlimit:10"
           id="line39"
           y2="159.647"
           x2="76.625"
           y1="110.99"
           x1="11.012"
           stroke-miterlimit="10" /><line
           style="fill:none;stroke:#e9996c;stroke-width:3;stroke-miterlimit:10"
           id="line41"
           y2="148.89301"
           x2="81.008003"
           y1="100.235"
           x1="15.395"
           stroke-miterlimit="10" /><line
           style="fill:none;stroke:#e9996c;stroke-width:3;stroke-miterlimit:10"
           id="line43"
           y2="138.13901"
           x2="85.390999"
           y1="89.481003"
           x1="19.778"
           stroke-miterlimit="10" /><line
           style="fill:none;stroke:#e9996c;stroke-width:3;stroke-miterlimit:10"
           id="line45"
           y2="127.384"
           x2="89.775002"
           y1="78.726997"
           x1="24.162001"
           stroke-miterlimit="10" /><line
           style="fill:none;stroke:#e9996c;stroke-width:3;stroke-miterlimit:10"
           id="line47"
           y2="116.629"
           x2="94.157997"
           y1="67.972"
           x1="28.544001"
           stroke-miterlimit="10" /><line
           style="fill:none;stroke:#e9996c;stroke-width:3;stroke-miterlimit:10"
           id="line49"
           y2="105.875"
           x2="98.541"
           y1="57.217999"
           x1="32.926998"
           stroke-miterlimit="10" /><line
           style="fill:none;stroke:#e9996c;stroke-width:3;stroke-miterlimit:10"
           id="line51"
           y2="95.120003"
           x2="102.924"
           y1="46.463001"
           x1="37.311001"
           stroke-miterlimit="10" /><line
           style="fill:none;stroke:#e9996c;stroke-width:3;stroke-miterlimit:10"
           id="line53"
           y2="84.365997"
           x2="107.307"
           y1="35.709"
           x1="41.694"
           stroke-miterlimit="10" /></g></g></g><path
     style="fill:#ffe6d5"
     inkscape:connector-curvature="0"
     id="path55"
     d="m 101.191,53.803 c 0,-6.592 -5.198,-11.957 -11.718,-12.255 C 89.469,21.88 73.524,5.936 53.854,5.936 c -19.659,0 -35.598,15.929 -35.617,35.584 -10e-4,0 -10e-4,0 -10e-4,0 -6.784,0 -12.283,5.5 -12.283,12.283 0,5.055 3.056,9.394 7.42,11.277 -0.027,0.333 -0.051,0.666 -0.051,1.006 0,6.783 5.498,12.282 12.282,12.282 0.134,0 0.264,-0.016 0.397,-0.021 1.357,5.305 6.156,9.232 11.885,9.232 2.166,0 4.197,-0.565 5.965,-1.549 2.214,3.221 5.921,5.335 10.125,5.335 4.071,0 7.669,-1.988 9.903,-5.038 1.626,0.794 3.446,1.252 5.377,1.252 5.729,0 10.527,-3.928 11.886,-9.232 0.134,0.005 0.263,0.021 0.397,0.021 6.783,0 12.282,-5.499 12.282,-12.282 0,-0.34 -0.024,-0.673 -0.051,-1.006 4.365,-1.884 7.421,-6.223 7.421,-11.277 z" /></svg>