<?xml version="1.0" encoding="utf-8"?>
<!-- Generator: Adobe Illustrator 16.0.3, SVG Export Plug-In . SVG Version: 6.00 Build 0)  -->
<!DOCTYPE svg PUBLIC "-//W3C//DTD SVG 1.1//EN" "http://www.w3.org/Graphics/SVG/1.1/DTD/svg11.dtd">
<svg version="1.1" id="Layer_1" xmlns="http://www.w3.org/2000/svg" xmlns:xlink="http://www.w3.org/1999/xlink" x="0px" y="0px"
	 width="107.143px" height="165.584px" viewBox="0 0 107.143 165.584" enable-background="new 0 0 107.143 165.584"
	 xml:space="preserve">
<g>
	<path fill="none" stroke="#000000" stroke-width="6" stroke-linecap="round" stroke-linejoin="round" stroke-miterlimit="10" d="
		M101.191,53.803c0-6.592-5.198-11.957-11.717-12.255C89.469,21.88,73.524,5.936,53.855,5.936
		c-19.659,0-35.599,15.929-35.618,35.584c-0.001,0-0.001,0-0.001,0c-6.784,0-12.283,5.5-12.283,12.283
		c0,5.055,3.056,9.394,7.42,11.277c-0.027,0.333-0.051,0.666-0.051,1.006c0,5.431,3.527,10.029,8.414,11.651l32.135,81.911
		l31.712-81.976c4.794-1.673,8.239-6.222,8.239-11.587c0-0.34-0.023-0.673-0.051-1.006C98.135,63.196,101.191,58.857,101.191,53.803
		z"/>
	<polygon fill="#FDAE6C" points="11.012,50.403 53.871,159.648 96.131,50.403 	"/>
	<g>
		<defs>
			<polygon id="SVGID_1_" points="11.012,50.403 53.871,159.648 96.131,50.403 			"/>
		</defs>
		<clipPath id="SVGID_2_">
			<use xlink:href="#SVGID_1_"  overflow="visible"/>
		</clipPath>
		<g clip-path="url(#SVGID_2_)">
			<g>
				<line fill="none" stroke="#E9996C" stroke-width="3" stroke-miterlimit="10" x1="11.012" y1="84.367" x2="76.625" y2="35.71"/>
				<line fill="none" stroke="#E9996C" stroke-width="3" stroke-miterlimit="10" x1="15.395" y1="95.121" x2="81.008" y2="46.464"/>
				
					<line fill="none" stroke="#E9996C" stroke-width="3" stroke-miterlimit="10" x1="19.778" y1="105.876" x2="85.391" y2="57.219"/>
				
					<line fill="none" stroke="#E9996C" stroke-width="3" stroke-miterlimit="10" x1="24.162" y1="116.631" x2="89.775" y2="67.974"/>
				
					<line fill="none" stroke="#E9996C" stroke-width="3" stroke-miterlimit="10" x1="28.544" y1="127.385" x2="94.158" y2="78.728"/>
				<line fill="none" stroke="#E9996C" stroke-width="3" stroke-miterlimit="10" x1="32.927" y1="138.14" x2="98.541" y2="89.482"/>
				
					<line fill="none" stroke="#E9996C" stroke-width="3" stroke-miterlimit="10" x1="37.311" y1="148.894" x2="102.924" y2="100.237"/>
				
					<line fill="none" stroke="#E9996C" stroke-width="3" stroke-miterlimit="10" x1="41.694" y1="159.648" x2="107.307" y2="110.991"/>
			</g>
			<g>
				
					<line fill="none" stroke="#E9996C" stroke-width="3" stroke-miterlimit="10" x1="11.012" y1="110.99" x2="76.625" y2="159.647"/>
				
					<line fill="none" stroke="#E9996C" stroke-width="3" stroke-miterlimit="10" x1="15.395" y1="100.235" x2="81.008" y2="148.893"/>
				
					<line fill="none" stroke="#E9996C" stroke-width="3" stroke-miterlimit="10" x1="19.778" y1="89.481" x2="85.391" y2="138.139"/>
				
					<line fill="none" stroke="#E9996C" stroke-width="3" stroke-miterlimit="10" x1="24.162" y1="78.727" x2="89.775" y2="127.384"/>
				
					<line fill="none" stroke="#E9996C" stroke-width="3" stroke-miterlimit="10" x1="28.544" y1="67.972" x2="94.158" y2="116.629"/>
				
					<line fill="none" stroke="#E9996C" stroke-width="3" stroke-miterlimit="10" x1="32.927" y1="57.218" x2="98.541" y2="105.875"/>
				<line fill="none" stroke="#E9996C" stroke-width="3" stroke-miterlimit="10" x1="37.311" y1="46.463" x2="102.924" y2="95.12"/>
				
					<line fill="none" stroke="#E9996C" stroke-width="3" stroke-miterlimit="10" x1="41.694" y1="35.709" x2="107.307" y2="84.366"/>
			</g>
		</g>
	</g>
	<path fill="#59331E" d="M101.191,53.803c0-6.592-5.198-11.957-11.718-12.255C89.469,21.88,73.524,5.936,53.854,5.936
		c-19.659,0-35.598,15.929-35.617,35.584c-0.001,0-0.001,0-0.001,0c-6.784,0-12.283,5.5-12.283,12.283
		c0,5.055,3.056,9.394,7.42,11.277c-0.027,0.333-0.051,0.666-0.051,1.006c0,6.783,5.498,12.282,12.282,12.282
		c0.134,0,0.264-0.016,0.397-0.021c1.357,5.305,6.156,9.232,11.885,9.232c2.166,0,4.197-0.565,5.965-1.549
		c2.214,3.221,5.921,5.335,10.125,5.335c4.071,0,7.669-1.988,9.903-5.038c1.626,0.794,3.446,1.252,5.377,1.252
		c5.729,0,10.527-3.928,11.886-9.232c0.134,0.005,0.263,0.021,0.397,0.021c6.783,0,12.282-5.499,12.282-12.282
		c0-0.34-0.024-0.673-0.051-1.006C98.135,63.196,101.191,58.857,101.191,53.803z"/>
</g>
</svg>
