<?xml version="1.0" encoding="UTF-8" standalone="no"?>
<svg
   xmlns:dc="http://purl.org/dc/elements/1.1/"
   xmlns:cc="http://creativecommons.org/ns#"
   xmlns:rdf="http://www.w3.org/1999/02/22-rdf-syntax-ns#"
   xmlns:svg="http://www.w3.org/2000/svg"
   xmlns="http://www.w3.org/2000/svg"
   xmlns:sodipodi="http://sodipodi.sourceforge.net/DTD/sodipodi-0.dtd"
   xmlns:inkscape="http://www.inkscape.org/namespaces/inkscape"
   id="svg2"
   viewBox="0 0 677.91 1188.7"
   version="1.1"
   inkscape:version="0.91 r13725"
   sodipodi:docname="number10.svg">
  <sodipodi:namedview
     pagecolor="#ffffff"
     bordercolor="#666666"
     borderopacity="1"
     objecttolerance="10"
     gridtolerance="10"
     guidetolerance="10"
     inkscape:pageopacity="0"
     inkscape:pageshadow="2"
     inkscape:window-width="1514"
     inkscape:window-height="849"
     id="namedview42"
     showgrid="false"
     inkscape:zoom="0.56154524"
     inkscape:cx="490.86742"
     inkscape:cy="575.88374"
     inkscape:window-x="0"
     inkscape:window-y="27"
     inkscape:window-maximized="0"
     inkscape:current-layer="svg2" />
  <title
     id="title4009">Door</title>
  <defs
     id="defs4">
    <filter
       id="filter3812"
       color-interpolation-filters="sRGB">
      <feGaussianBlur
         id="feGaussianBlur3814"
         stdDeviation="1.411933" />
    </filter>
    <filter
       id="filter3860"
       color-interpolation-filters="sRGB">
      <feGaussianBlur
         id="feGaussianBlur3862"
         stdDeviation="2.9344931" />
    </filter>
  </defs>
  <rect
     x="15.000025"
     y="11.000003"
     width="661.96002"
     height="1176.7"
     style="color:#000000;fill:#808080;stroke:#000000;stroke-width:1.89040005;stroke-linecap:round;stroke-linejoin:round"
     id="rect3924" />
  <rect
     x="3.0000243"
     y="2.9999952"
     width="661.96002"
     height="1176.7"
     style="color:#000000;fill:#333333;stroke:#000000;stroke-width:6;stroke-linecap:round;stroke-linejoin:round"
     id="rect3900" />
  <g
     style="fill:#333333;stroke:#000000"
     transform="matrix(0.88739,0,0,1,1183.83,126.63)"
     id="g3902">
    <g
       transform="matrix(0.89691,0,0,0.89691,-516.35,-45.522)"
       id="g3864"
       style="fill:#333333">
      <rect
         x="-782"
         y="67.098999"
         width="236"
         height="436"
         style="color:#000000;stroke-width:3;fill:#333333"
         id="rect3824" />
      <rect
         x="-772.13"
         y="85.341003"
         width="216.25"
         height="399.51001"
         style="color:#000000;stroke-width:2.74900007;fill:#333333"
         id="rect3826" />
      <rect
         x="-762.25"
         y="103.58"
         width="196.5"
         height="363.03"
         style="color:#000000;stroke-width:2.49790001;fill:#333333"
         id="rect3828" />
      <path
         style="stroke-width:2;filter:url(#filter3860);fill:#333333"
         inkscape:connector-curvature="0"
         d="m -562.86,94.94 -205.06,0 0,381.84"
         id="path3830" />
    </g>
    <g
       transform="matrix(0.89691,0,0,0.89691,-228.35,-45.522)"
       id="g3870"
       style="fill:#333333">
      <rect
         x="-782"
         y="67.098999"
         width="236"
         height="436"
         style="color:#000000;stroke-width:3;fill:#333333"
         id="rect3872" />
      <rect
         x="-772.13"
         y="85.341003"
         width="216.25"
         height="399.51001"
         style="color:#000000;stroke-width:2.74900007;fill:#333333"
         id="rect3874" />
      <rect
         x="-762.25"
         y="103.58"
         width="196.5"
         height="363.03"
         style="color:#000000;stroke-width:2.49790001;fill:#333333"
         id="rect3876" />
      <path
         style="stroke-width:2;filter:url(#filter3860);fill:#333333"
         inkscape:connector-curvature="0"
         d="m -562.86,94.94 -205.06,0 0,381.84"
         id="path3878" />
    </g>
    <g
       transform="matrix(0.89691,0,0,0.89691,-516.35,454.48)"
       id="g3880"
       style="fill:#333333">
      <rect
         x="-782"
         y="67.098999"
         width="236"
         height="436"
         style="color:#000000;stroke-width:3;fill:#333333"
         id="rect3882" />
      <rect
         x="-772.13"
         y="85.341003"
         width="216.25"
         height="399.51001"
         style="color:#000000;stroke-width:2.74900007;fill:#333333"
         id="rect3884" />
      <rect
         x="-762.25"
         y="103.58"
         width="196.5"
         height="363.03"
         style="color:#000000;stroke-width:2.49790001;fill:#333333"
         id="rect3886" />
      <path
         style="stroke-width:2;filter:url(#filter3860);fill:#333333"
         inkscape:connector-curvature="0"
         d="m -562.86,94.94 -205.06,0 0,381.84"
         id="path3888" />
    </g>
    <g
       transform="matrix(0.89691,0,0,0.89691,-228.35,454.48)"
       id="g3890"
       style="fill:#333333">
      <rect
         x="-782"
         y="67.098999"
         width="236"
         height="436"
         style="color:#000000;stroke-width:3;fill:#333333"
         id="rect3892" />
      <rect
         x="-772.13"
         y="85.341003"
         width="216.25"
         height="399.51001"
         style="color:#000000;stroke-width:2.74900007;fill:#333333"
         id="rect3894" />
      <rect
         x="-762.25"
         y="103.58"
         width="196.5"
         height="363.03"
         style="color:#000000;stroke-width:2.49790001;fill:#333333"
         id="rect3896" />
      <path
         style="stroke-width:2;filter:url(#filter3860);fill:#333333"
         inkscape:connector-curvature="0"
         d="m -562.86,94.94 -205.06,0 0,381.84"
         id="path3898" />
    </g>
  </g>
  <g
     transform="matrix(0.62288,0,0,0.62288,493.05,294.13)"
     id="g3816">
    <rect
       x="121"
       y="369.35999"
       width="105"
       height="245"
       style="color:#000000;fill:#808080"
       id="rect3776" />
    <path
       inkscape:connector-curvature="0"
       transform="translate(-1,0)"
       style="color:#000000"
       d="m 183,514.36 c 0,5.5228 -4.4772,10 -10,10 -5.5228,0 -10,-4.4772 -10,-10 0,-5.5228 4.4772,-10 10,-10 5.5228,0 10,4.4772 10,10 z"
       id="path2985" />
    <rect
       x="167"
       y="510.35999"
       width="10"
       height="38"
       ry="0"
       style="color:#000000"
       id="rect3755" />
    <path
       inkscape:connector-curvature="0"
       transform="translate(211,-44)"
       style="color:#000000;fill:#e6e6e6"
       d="m 4,484.86 c 0,21.815 -17.685,39.5 -39.5,39.5 -21.815,0 -39.5,-17.685 -39.5,-39.5 0,-21.815 17.685,-39.5 39.5,-39.5 21.815,0 39.5,17.685 39.5,39.5 z"
       id="path3780" />
    <path
       inkscape:connector-curvature="0"
       transform="translate(209,-46)"
       style="color:#000000"
       d="m 4,484.86 c 0,21.815 -17.685,39.5 -39.5,39.5 -21.815,0 -39.5,-17.685 -39.5,-39.5 0,-21.815 17.685,-39.5 39.5,-39.5 21.815,0 39.5,17.685 39.5,39.5 z"
       id="path3778" />
    <path
       style="fill:#ffffff;stroke:#000000;stroke-width:1px;filter:url(#filter3812)"
       inkscape:connector-curvature="0"
       d="m 184,406.36 c -5.1935,-9.1727 -29.246,1.9072 -36,10 -6.041,7.2384 -18.13,33.84 -6,38 10.443,3.5816 10.761,-23.018 16,-29 6.0742,-6.9357 30.542,-10.977 26,-19 z"
       id="path3782" />
  </g>
  <metadata
     id="metadata40">
    <rdf:RDF>
      <cc:Work>
        <dc:format>image/svg+xml</dc:format>
        <dc:type
           rdf:resource="http://purl.org/dc/dcmitype/StillImage" />
        <cc:license
           rdf:resource="http://creativecommons.org/licenses/publicdomain/" />
        <dc:publisher>
          <cc:Agent
             rdf:about="http://openclipart.org/">
            <dc:title>Openclipart</dc:title>
          </cc:Agent>
        </dc:publisher>
        <dc:title>Door</dc:title>
        <dc:date>2013-11-01T08:56:35</dc:date>
        <dc:description>Wood frame, four panel door</dc:description>
        <dc:source>https://openclipart.org/detail/188198/door-by-algotruneman-188198</dc:source>
        <dc:creator>
          <cc:Agent>
            <dc:title>algotruneman</dc:title>
          </cc:Agent>
        </dc:creator>
        <dc:subject>
          <rdf:Bag>
            <rdf:li>access</rdf:li>
            <rdf:li>door</rdf:li>
            <rdf:li>entry</rdf:li>
            <rdf:li>house</rdf:li>
          </rdf:Bag>
        </dc:subject>
      </cc:Work>
      <cc:License
         rdf:about="http://creativecommons.org/licenses/publicdomain/">
        <cc:permits
           rdf:resource="http://creativecommons.org/ns#Reproduction" />
        <cc:permits
           rdf:resource="http://creativecommons.org/ns#Distribution" />
        <cc:permits
           rdf:resource="http://creativecommons.org/ns#DerivativeWorks" />
      </cc:License>
    </rdf:RDF>
  </metadata>
  <text
     xml:space="preserve"
     style="font-style:normal;font-weight:normal;font-size:30px;line-height:125%;font-family:sans-serif;letter-spacing:0px;word-spacing:0px;fill:#000000;fill-opacity:1;stroke:none;stroke-width:1px;stroke-linecap:butt;stroke-linejoin:miter;stroke-opacity:1"
     x="243.96967"
     y="291.17654"
     id="text4230"
     sodipodi:linespacing="125%"><tspan
       sodipodi:role="line"
       id="tspan4232"
       x="243.96967"
       y="291.17654"
       style="font-style:normal;font-variant:normal;font-weight:normal;font-stretch:normal;font-size:180px;font-family:Alegreya;-inkscape-font-specification:Alegreya;fill:#ffffff">10</tspan></text>
</svg>
