<?xml version="1.0" encoding="UTF-8" standalone="no"?>
<!-- Created with Inkscape (http://www.inkscape.org/) -->
<svg xmlns:svg="http://www.w3.org/2000/svg" xmlns="http://www.w3.org/2000/svg" xmlns:inkscape="http://www.inkscape.org/namespaces/inkscape" xmlns:sodipodi="http://sodipodi.sourceforge.net/DTD/sodipodi-0.dtd" xmlns:ns1="http://sozi.baierouge.fr" xmlns:xlink="http://www.w3.org/1999/xlink" xmlns:dc="http://purl.org/dc/elements/1.1/" xmlns:cc="http://web.resource.org/cc/" version="1.0" width="1052.0164" height="1235.2472" id="svg21166" inkscape:version="0.91 r13725" xmlns:rdf="http://www.w3.org/1999/02/22-rdf-syntax-ns#">
  <defs id="defs21168"/>
  <g transform="translate(108.40901,140.69687)" id="layer1">
    <path d="M 305.28571,1094.149 C 275.05967,1091.296 245.69758,1080.8801 225.41045,1065.8143 C 212.19105,1055.9972 201.11387,1041.822 199.68657,1032.8962 C 199.18422,1029.7547 199.46917,1028.6073 201.17552,1026.901 C 202.33613,1025.7404 204.41071,1024.7908 205.78571,1024.7908 C 207.16071,1024.7908 208.28571,1024.4192 208.28571,1023.9651 C 208.28571,1022.8187 204.4781,1019.528 200.18138,1016.961 C 195.3714,1014.0875 181.76927,999.65897 179.29141,994.80197 C 172.23547,980.97117 169.79473,968.64827 169.98007,947.79077 C 170.06134,938.64597 170.47527,936.20337 173.1873,928.86537 C 174.89995,924.23147 177.5257,918.38147 179.0223,915.86537 C 180.5189,913.34937 182.81334,909.08967 184.12104,906.39947 L 186.49868,901.50817 L 183.1422,898.90567 C 176.22131,893.53947 170.28571,887.08177 170.28571,884.91827 C 170.28571,883.71357 169.64215,882.48107 168.85559,882.17917 C 166.57826,881.30527 165.28397,876.09317 165.30767,867.89157 C 165.3343,858.67487 167.234,854.04457 173.44877,848.04847 C 177.35476,844.27987 178.525,843.73507 183.92762,843.17037 C 191.94938,842.33197 192.7635,843.68567 187.51425,849.13407 C 182.21432,854.63507 179.36813,861.44017 178.0371,871.79347 C 177.073,879.29267 177.16649,881.00357 178.82926,886.28987 C 180.56626,891.81227 184.22134,896.79077 186.53872,896.79077 C 187.077,896.79077 187.16515,896.02107 186.73912,895.04077 C 186.3208,894.07827 185.77231,890.26097 185.52024,886.55777 C 184.661,873.93447 190.23725,857.57527 197.34677,851.86197 C 203.45632,846.95217 202.82328,844.95507 193.65854,840.22627 C 182.36068,834.39677 181.28571,833.75787 181.28571,832.87257 C 181.28571,832.42757 180.17201,830.94977 178.81081,829.58857 C 176.26165,827.03947 170.26842,815.48327 166.46885,805.79077 C 164.14096,799.85247 161.82679,789.58207 160.83573,780.79075 C 160.2783,775.84604 161.98082,761.24087 163.83212,755.0861 C 164.38474,753.24886 164.0195,752.77406 161.64048,752.23707 C 153.12735,750.31548 142.56743,745.46954 137.78571,741.29013 C 120.99845,726.61743 111.69106,712.86754 107.32531,696.29075 C 102.69861,678.72313 102.4956,670.40567 106.34263,656.02959 C 107.41132,652.03596 108.28571,648.03628 108.28571,647.14142 C 108.28571,646.24657 110.08571,643.56164 112.28571,641.17492 C 116.48821,636.61575 117.03492,634.52919 115.12519,630.3378 C 113.58717,626.9622 111.29888,627.12326 107.7228,630.85885 C 98.38421,640.61398 78.7842,645.62352 70.69441,640.32288 C 69.40833,639.48021 67.46576,638.79075 66.3776,638.79075 C 64.33105,638.79075 61.28571,635.3431 61.28571,633.0262 C 61.28571,631.75247 62.70987,629.60368 71.38336,617.79075 C 73.60442,614.76575 77.91389,607.34075 80.95996,601.29075 C 84.00603,595.24075 88.00832,587.36575 89.85395,583.79075 C 91.69957,580.21575 94.82713,571.66575 96.80409,564.79075 C 106.17558,532.20078 107.79419,513.57587 104.83122,472.42505 C 102.5007,440.05801 101.42957,431.91387 96.65922,410.29075 C 88.85587,374.91957 83.58768,356.8188 75.55827,337.79075 C 73.12135,332.01575 68.74047,320.99075 65.82297,313.29075 C 56.35475,288.3017 50.28139,277.18599 35.53571,257.85772 C 32.64821,254.07285 30.28571,250.72941 30.28571,250.42785 C 30.28571,249.89652 28.25532,246.96288 17.76906,232.343 C 7.3287,217.78713 -13.91754,194.03696 -22.21429,187.64753 C -24.96429,185.52972 -30.13929,181.50374 -33.71429,178.70091 C -41.87952,172.29929 -48.31488,168.48155 -49.95157,169.06824 C -50.68089,169.32968 -49.80588,170.31711 -47.88014,171.40581 C -39.5771,176.09988 -17.21855,195.55895 -11.83589,202.77582 C -10.39401,204.70903 -8.71442,206.74075 -8.10347,207.29075 C -7.49252,207.84075 -5.49722,210.54075 -3.66947,213.29075 C -1.84172,216.04075 -0.08738,218.51575 0.22907,218.79075 C 1.55288,219.94117 6.06012,227.50462 6.78739,229.79603 C 7.51788,232.09763 7.44495,232.16826 5.76842,230.78291 C 4.77523,229.96222 1.46246,226.59075 -1.59331,223.29075 C -20.03527,203.37483 -36.57921,191.64717 -56.21429,184.57103 C -63.96495,181.77783 -66.53914,181.32504 -74.75827,181.30917 C -82.30485,181.29461 -84.88015,181.66941 -87.06358,183.10005 C -89.37287,184.61315 -90.37574,184.72756 -93.18961,183.79889 C -99.23998,181.80209 -100.41057,177.85771 -97.14738,170.46297 C -95.07075,165.75709 -93.39336,163.97243 -89.52964,162.35807 C -80.74988,158.68965 -71.78278,159.59078 -59.31971,165.39397 C -53.21114,168.23831 -50.04119,168.55102 -54.03945,165.91487 C -56.60656,164.2223 -63.30131,161.85014 -74.29943,158.73612 C -76.5716,158.09277 -82.45213,157.73728 -87.54994,157.9351 L -96.7153,158.29075 L -96.7148,155.61218 C -96.71421,152.49812 -94.59208,150.04917 -91.14436,149.18384 C -89.33024,148.72853 -88.71429,147.8974 -88.71429,145.90485 C -88.71429,141.45601 -83.55639,135.40321 -78.71429,134.16982 C -75.66373,133.39277 -68.71429,129.6597 -68.71429,128.79806 C -68.71429,128.45463 -71.41158,126.4281 -74.70826,124.29465 C -78.00494,122.16121 -81.82069,118.81256 -83.18771,116.85321 C -84.55473,114.89386 -87.42063,111.60498 -89.55638,109.54459 C -99.30675,100.13826 -109.95211,66.866651 -108.223,51.202881 C -107.92476,48.501211 -107.26077,42.373151 -106.74747,37.584971 C -105.5987,26.869151 -102.37382,17.507711 -96.6107,8.1592214 C -94.19268,4.2368814 -90.26726,-2.1474186 -87.88755,-6.0281086 C -82.15964,-15.368889 -72.04212,-27.115939 -64.94602,-32.664639 C -47.62645,-46.207439 -45.43791,-47.377549 -19.71429,-56.847859 C -1.12288,-63.692399 29.68022,-64.230259 55.28571,-58.157449 C 73.54887,-53.826009 83.63078,-50.583449 90.78571,-46.739899 C 115.22296,-33.612459 123.65068,-25.964469 137.32966,-4.5022186 C 139.50549,-1.0883486 141.28822,2.0616514 141.29129,2.4977814 C 141.29435,2.9339114 141.77267,5.0042114 142.35422,7.0984414 L 143.41158,10.906131 L 147.09864,6.7663714 C 149.97611,3.5356114 151.55346,2.5897414 154.2822,2.4586814 C 157.71147,2.2939814 157.78909,2.3772814 158.31905,6.7907514 C 158.88528,11.506211 160.09439,13.754441 166.92399,22.790751 C 173.12899,31.000651 174.9364,32.403411 188.78571,39.758001 C 199.69262,45.550051 206.17425,47.642751 220.30658,49.935011 C 227.9951,51.182081 234.28571,52.593571 234.28571,53.071661 C 234.28571,54.007971 220.70395,53.277511 207.85347,51.650071 C 203.49074,51.097551 194.94074,49.081781 188.85347,47.170571 C 182.7662,45.259361 176.0633,43.256941 173.95812,42.720731 C 165.51311,40.569711 154.55953,33.547221 147.946,26.044001 C 144.524,22.161651 143.28571,22.601811 143.28571,27.700541 C 143.28571,32.550171 141.63775,37.444031 138.64761,41.474031 C 137.34856,43.224831 136.28571,45.056331 136.28571,45.544031 C 136.28571,47.756461 128.977,54.619901 123.86893,57.204351 C 118.83298,59.752311 117.49201,60.002701 111.26726,59.557321 C 103.08171,58.971641 99.57635,60.439811 102.37393,63.282141 C 104.63893,65.583361 116.43322,67.117141 120.00662,65.575161 C 124.93238,63.449621 133.68554,57.680981 137.416,54.101751 L 141.04629,50.618641 L 147.3949,55.292221 C 150.88664,57.862681 156.678,61.338891 160.26461,63.017131 C 169.03653,67.121651 185.95029,73.795371 187.52045,73.771561 C 188.21634,73.761001 184.73571,71.601411 179.78571,68.972471 C 162.93708,60.024181 146.28571,47.475271 146.28571,43.726001 C 146.28571,40.932461 149.33927,33.790751 150.53369,33.790751 C 151.10064,33.790751 153.63928,35.055831 156.17511,36.602031 C 164.69656,41.797921 188.48288,50.459431 216.78571,58.672651 C 230.19491,62.563881 268.08276,69.935471 286.28571,72.194811 C 343.18343,79.256911 370.22504,80.689331 412.42812,78.876681 C 470.4838,76.383151 498.51416,71.306281 551.78571,53.636201 C 581.8543,43.662501 590.8021,39.356381 637.2857,12.489581 C 656.3903,1.4474214 695.9509,-27.877389 694.1595,-29.668819 C 693.8221,-30.006209 690.9124,-28.915839 687.6934,-27.245759 C 684.4745,-25.575679 681.4663,-24.209249 681.0084,-24.209249 C 680.5506,-24.209249 678.2882,-23.355859 675.9809,-22.312839 C 661.9093,-15.951769 660.0733,-16.426799 672.4603,-23.223729 C 683.4581,-29.258319 690.1804,-35.577219 694.6488,-44.080729 C 697.3959,-49.308469 698.282,-52.189209 698.2704,-55.855479 C 698.2517,-61.798059 697.3415,-63.368379 693.683,-63.769979 C 690.0612,-64.167549 688.2857,-66.633299 688.2857,-71.265519 C 688.2857,-78.626949 694.6903,-83.209249 704.9792,-83.209249 C 712.0234,-83.209249 718.0257,-80.846319 720.7075,-77.017399 C 722.5712,-74.356649 721.8891,-62.572969 719.5899,-57.709249 L 718.1717,-54.709249 L 721.2146,-57.959249 C 722.8882,-59.746749 724.6043,-61.209249 725.0281,-61.209249 C 725.9299,-61.209249 728.2857,-54.093609 728.2857,-51.369809 C 728.2857,-48.959339 722.6551,-38.439689 718.7857,-33.620939 C 717.1357,-31.566109 712.5232,-26.680469 708.5357,-22.763959 C 704.5482,-18.847439 701.2857,-14.924629 701.2857,-14.046599 C 701.2857,-13.168569 699.1754,-10.708469 696.5961,-8.5797086 C 689.4387,-2.6726086 688.5691,-1.8529886 691.2857,-3.5746186 C 692.6607,-4.4460186 696.2607,-6.6007986 699.2857,-8.3630286 C 712.3712,-15.986069 725.3699,-27.844859 730.3897,-36.739529 C 732.0875,-39.747869 733.7712,-42.201479 734.1312,-42.191969 C 734.4912,-42.182469 735.8402,-41.062969 737.1289,-39.704189 C 738.4177,-38.345409 741.2496,-36.701149 743.422,-36.050269 C 746.7617,-35.049679 747.6153,-35.110219 748.9471,-36.442089 C 750.9306,-38.425539 750.1183,-39.792739 746.53,-40.510399 C 739.9242,-41.831549 736.753,-46.369319 730.1493,-63.950309 C 724.5475,-78.863909 725.2612,-88.249249 733.1973,-104.03337 C 739.0282,-115.63048 748.8694,-124.44794 765.131,-132.64508 C 771.1863,-135.69742 784.9805,-138.96444 796.2135,-140.00668 C 808.8689,-141.18089 838.2503,-140.78555 844.2857,-139.35986 C 869.1955,-133.47559 884.3297,-127.38988 894.1576,-119.30555 C 916.9896,-100.5242 929.6129,-83.270279 937.293,-60.346889 C 942.7563,-44.039849 943.6178,-38.290999 943.6072,-18.209249 C 943.5833,27.253491 932.5729,66.564131 912.3776,93.290751 C 905.2306,102.74923 887.5485,119.88682 878.7857,125.84825 C 862.3309,137.04263 841.1597,148.76924 837.3386,148.80548 C 834.5759,148.83168 823.8798,152.50845 823.5322,153.55142 C 823.1505,154.6963 828.4661,156.79075 831.7534,156.79075 C 837.1486,156.79075 844.3544,159.98308 849.3071,164.56738 C 854.0382,168.94656 854.4519,169.70713 854.9841,175.00484 C 855.5867,181.00305 854.546,184.9544 851.0132,190.08261 C 848.6456,193.51937 849.3606,197.33333 852.527,198.15743 C 853.7693,198.48076 856.4528,200.2889 858.4904,202.17551 C 860.5279,204.06213 863.7689,206.12516 865.6926,206.76002 C 868.8731,207.80969 871.3046,211.10515 869.9201,212.48965 C 869.1824,213.22736 867.6549,212.42913 862.0249,208.36395 C 852.5097,201.49338 839.1218,197.76759 821.396,197.05708 C 799.4356,196.17683 788.7586,198.77838 766.2857,210.48528 C 750.4704,218.72399 741.2463,224.4173 734.2857,230.23634 C 719.249,242.80698 686.828,277.47904 677.6628,290.79075 C 676.3375,292.71575 672.5452,297.89075 669.2357,302.29075 C 665.9261,306.69075 661.4175,312.76575 659.2164,315.79075 C 657.0154,318.81575 653.2014,323.99075 650.7409,327.29075 C 638.7558,343.36466 623.5271,368.5042 614.0921,387.79075 C 602.5581,411.36801 589.3756,455.67397 586.719,479.79075 C 586.3858,482.81575 585.3002,490.01575 584.3066,495.79075 C 579.11112,525.9883 578.40238,533.24696 578.78991,552.29075 C 579.10589,567.81841 579.3639,569.21728 585.8909,590.79075 C 591.5685,609.55701 603.1281,626.85278 615.1389,634.55251 C 618.693,636.83088 620.1575,638.31899 619.4963,638.98016 C 618.8351,639.64132 617.8143,639.6088 616.4588,638.88339 C 615.3359,638.28244 613.796,637.79075 613.0367,637.79075 C 611.6547,637.79075 608.2857,643.71867 608.2857,646.15036 C 608.2857,648.23121 604.332,651.33692 595.9355,655.85164 L 588.0852,660.07264 L 578.68545,659.51184 C 570.12523,659.00113 569.28571,659.11023 569.28571,660.73339 C 569.28571,661.71368 570.63571,664.21449 572.28571,666.29075 C 573.93571,668.36701 575.28571,670.48391 575.28571,670.99498 C 575.28571,671.50605 576.36007,673.35667 577.67319,675.10747 C 581.1092,679.68876 583.8739,685.87534 585.9248,693.57211 C 588.5826,703.54636 588.5586,736.23991 585.8858,746.79075 C 582.4127,760.50046 575.49904,772.95163 565.39119,783.70054 C 561.98355,787.3243 561.99004,787.3458 567.37206,790.26839 C 572.3977,792.99747 579.55592,805.03267 582.8089,816.22257 C 585.4456,825.29237 584.4859,839.59927 580.3894,852.29077 C 578.61416,857.79077 576.75574,863.58907 576.25956,865.17587 C 575.07427,868.96657 578.38254,873.39237 583.1275,874.36367 C 586.5251,875.05917 593.7047,879.95337 598.3487,884.73967 C 610.1949,896.94877 621.9348,920.43447 627.8669,943.79077 C 631.2806,957.23117 627.6884,990.82207 621.1833,1006.2908 C 616.0971,1018.3853 605.9586,1035.4551 600.0982,1041.7908 C 596.0571,1046.1596 585.9921,1053.5183 579.78571,1056.6416 C 562.06639,1065.5587 532.24446,1072.1636 510.6876,1071.9454 C 496.72913,1071.8041 482.12045,1068.9361 474.00492,1064.7439 C 471.92548,1063.6697 469.32793,1062.7908 468.23257,1062.7908 C 467.13722,1062.7908 464.33858,1061.0818 462.01337,1058.993 C 459.68816,1056.9042 456.6028,1054.4546 455.15701,1053.5494 C 452.62677,1051.9653 452.4395,1051.9996 450.15701,1054.4654 C 445.95426,1059.0058 433.47678,1067.7165 424.00644,1072.7215 C 415.88674,1077.0126 399.17434,1082.7908 394.88248,1082.7908 C 394.0427,1082.7908 391.42738,1083.4043 389.07066,1084.1542 C 386.71394,1084.904 380.96071,1086.0828 376.28571,1086.7737 C 371.61071,1087.4646 366.43571,1088.623 364.78571,1089.3479 C 357.0709,1092.7372 321.08869,1095.6407 305.28571,1094.149 z M 333.94699,1082.2311 C 334.7612,1080.1093 329.40771,1074.6254 326.88861,1075.0008 C 323.85447,1075.4529 323.97049,1077.1643 327.26928,1080.6162 C 330.57831,1084.0788 333.01211,1084.6674 333.94699,1082.2311 z M 349.28571,1081.6195 C 349.28571,1078.6746 346.4879,1075.7908 343.63072,1075.7908 C 340.62235,1075.7908 340.54481,1078.3732 343.46002,1081.4763 C 346.26581,1084.463 349.28571,1084.5372 349.28571,1081.6195 z M 316.70796,1079.9166 C 317.45347,1078.7103 312.73574,1073.7908 310.83346,1073.7908 C 308.43694,1073.7908 309.00025,1075.9819 312.03571,1078.4673 C 315.07507,1080.9558 315.90634,1081.2137 316.70796,1079.9166 z M 386.0297,1078.3064 C 404.5143,1073.8281 423.18655,1065.4699 434.25869,1056.7179 C 440.48713,1051.7946 442.28571,1048.3663 442.28571,1041.4172 C 442.28571,1036.9564 441.79586,1035.3621 439.637,1032.7964 C 437.49312,1030.2486 436.4925,1029.77 434.387,1030.2855 C 429.97203,1031.3665 428.78998,1033.1798 430.23159,1036.6601 C 431.36655,1039.4002 431.22738,1039.9734 428.63014,1043.2559 C 424.48845,1048.4903 415.9746,1054.7943 406.38377,1059.728 C 396.2134,1064.9599 373.76282,1072.7205 366.53571,1073.5025 C 360.71496,1074.1324 359.94075,1075.4599 363.47427,1078.7518 C 366.47739,1081.5497 373.18986,1081.4171 386.0297,1078.3064 z M 253.97876,1057.5527 C 254.73132,1055.8661 254.38811,1053.3955 252.58612,1047.5278 C 251.27089,1043.2451 250.04646,1036.5685 249.86517,1032.6909 C 249.50425,1024.9716 248.33563,1022.6746 245.82809,1024.7556 C 243.78661,1026.4499 243.87726,1029.1886 246.40846,1042.2908 C 249.50169,1058.3022 251.6825,1062.6988 253.97876,1057.5527 z M 413.68156,1019.5704 C 414.28843,1008.654 414.60573,1007.0872 416.53987,1005.4565 C 417.95752,1004.2612 419.83118,1003.7524 421.91772,1003.996 C 424.74763,1004.3264 425.18502,1004.0443 425.68002,1001.5693 C 426.00894,999.92457 427.23594,998.31497 428.65275,997.66937 C 430.39265,996.87667 431.24051,995.47487 431.69348,992.64217 C 432.41021,988.15997 434.53935,986.80537 437.1517,989.16947 C 438.22476,990.14057 440.68464,990.79077 443.28571,990.79077 C 445.6741,990.79077 448.33866,991.40397 449.20697,992.15347 C 450.07528,992.90297 452.24821,993.79177 454.03571,994.12847 C 457.25353,994.73467 457.28571,994.70197 457.28571,990.82297 C 457.28571,985.96747 460.67936,979.98107 463.88846,979.17567 C 465.20695,978.84467 466.28571,978.17277 466.28571,977.68237 C 466.28571,976.51387 470.00404,976.52597 470.72768,977.69687 C 471.05527,978.22697 472.77024,978.14797 474.86006,977.50657 C 477.71519,976.63027 478.60439,976.68837 479.28881,977.79577 C 480.00043,978.94717 480.76141,978.85257 483.79121,977.23607 L 487.43725,975.29077 L 489.4014,977.70087 C 490.89152,979.52927 491.64552,979.83097 492.52563,978.95087 C 493.16367,978.31277 494.73036,977.79077 496.00715,977.79077 C 498.21765,977.79077 499.05493,978.91767 500.69677,984.10277 C 501.22519,985.77157 501.44677,985.79137 503.50063,984.35277 C 504.72718,983.49367 506.75559,982.79077 508.00822,982.79077 C 509.92639,982.79077 510.28571,982.26057 510.28571,979.43027 C 510.28571,977.50157 511.34296,974.51197 512.76732,972.41297 C 515.048,969.05227 515.74135,964.91357 515.21702,957.79077 C 514.80962,952.25657 514.3495,941.15617 513.98035,927.95587 C 513.57233,913.36617 513.65376,912.52577 515.65615,910.66027 C 516.98361,909.42357 518.83905,908.80867 520.68065,908.99517 C 523.43005,909.27347 523.7075,909.72857 525.43352,916.79077 C 531.72306,942.52497 538.34821,977.32727 540.75793,997.29077 C 541.92911,1006.9935 542.24596,1007.7908 544.93091,1007.7908 C 549.51483,1007.7908 551.27558,1009.5004 551.40402,1014.076 C 551.4691,1016.3941 551.80738,1019.6198 552.15577,1021.2442 L 552.78919,1024.1975 L 554.52988,1021.5409 C 556.5591,1018.4439 561.97985,1017.0216 565.19525,1018.7424 C 566.95771,1019.6856 567.41304,1019.5745 567.89428,1018.0839 C 569.77706,1012.2521 570.59711,1011.182 574.41903,1009.5695 L 578.49896,1007.8483 L 577.82959,999.56947 C 577.46143,995.01617 576.09617,984.54077 574.79568,976.29077 C 571.36441,954.52367 568.48151,935.03897 567.83016,929.21277 C 567.19281,923.51177 561.05758,896.49627 556.26576,878.29077 C 554.52859,871.69077 552.68206,864.54497 552.16235,862.41127 C 551.64264,860.27747 550.82173,857.79237 550.3381,856.88867 C 549.85447,855.98497 547.36195,847.15577 544.79917,837.26817 C 537.82498,810.36067 532.05044,792.40327 529.93101,791.03185 C 527.64067,789.54982 526.20974,786.9199 524.83163,781.65967 C 524.05801,778.70676 518.0975,765.71575 511.58606,752.79075 C 496.94072,723.72026 486.14966,700.57733 482.66335,690.76199 C 480.34574,684.23699 479.98714,681.58095 479.83198,669.79075 C 479.41196,637.8752 482.61785,620.09373 494.79638,586.79075 C 496.10372,583.21575 497.46124,578.49075 497.81309,576.29075 C 498.16493,574.09075 499.79265,569.22781 501.43023,565.48423 C 503.06781,561.74064 504.26771,557.46564 504.09668,555.98423 C 503.82444,553.62621 503.22526,553.20657 499.28571,552.61487 C 492.42029,551.58372 483.72149,551.67457 480.73884,552.80857 C 478.64053,553.60635 478.18555,554.29973 478.63432,556.01585 C 479.00666,557.43967 478.39826,559.26934 476.89451,561.24803 C 473.30538,565.97076 471.62694,569.77704 470.26119,576.29075 C 469.56927,579.59075 467.96018,583.86575 466.68543,585.79075 C 465.41068,587.71575 463.71227,591.15209 462.91118,593.42706 C 461.30127,597.99894 458.36392,604.01376 457.3617,604.79075 C 457.00699,605.06575 455.74492,606.55697 454.55711,608.10457 C 452.34906,610.98146 452.50055,613.60635 454.9603,615.09044 C 456.62889,616.09719 456.58857,619.40752 454.86041,623.29075 C 453.4826,626.38672 453.39014,626.32596 451.81709,621.29075 C 451.55936,620.46575 450.48946,619.79075 449.43954,619.79075 C 446.64218,619.79075 444.95337,622.33047 445.71989,625.38453 C 446.27986,627.61562 446.81569,627.93996 449.33156,627.57071 C 450.95634,627.33225 452.28571,627.42307 452.28571,627.77254 C 452.28571,628.12201 450.93571,632.10703 449.28571,636.62814 C 447.63571,641.14925 446.28571,645.71417 446.28571,646.77242 C 446.28571,647.83067 444.48571,650.14302 442.28571,651.91099 C 440.08571,653.67896 438.28571,655.71913 438.28571,656.44469 C 438.28571,657.17026 439.74821,658.37524 441.53571,659.12243 C 446.88909,661.36017 447.78371,663.08887 445.95438,667.6608 C 443.86051,672.89389 441.26776,692.04051 441.36185,701.57513 C 441.4552,711.03509 443.42812,723.87099 444.78585,723.85175 C 445.33577,723.84395 446.10638,719.88954 446.49831,715.06416 C 447.68151,700.49665 450.08957,695.81724 453.72901,701.01326 C 454.58519,702.23563 455.31146,703.02313 455.34293,702.76326 C 455.37441,702.50338 455.56903,697.79075 455.77544,692.29075 C 456.09483,683.78002 457.35981,666.39636 457.77657,664.79075 C 457.84795,664.51575 458.24642,662.01923 458.66206,659.24293 C 459.0777,656.46662 459.81222,653.55687 460.29433,652.77681 C 461.64037,650.59886 463.59154,656.6133 462.73195,660.29075 C 461.51341,665.50385 461.11018,706.38954 462.2182,712.38336 C 462.79045,715.47897 465.06475,721.77801 467.27219,726.38121 C 469.47962,730.98442 471.28571,734.96449 471.28571,735.22581 C 471.28571,735.48714 472.59642,738.53365 474.19839,741.99585 C 475.80036,745.45804 478.06598,751.44075 479.23309,755.29075 C 481.06749,761.34196 482.03078,766.18846 484.83259,783.46277 C 485.86273,789.81399 481.94069,788.42093 479.94166,781.72557 L 478.61755,777.29075 L 477.84436,782.63845 L 477.07116,787.98615 L 474.10563,784.38845 C 468.87022,778.03699 466.99096,779.85066 468.25409,790.03579 C 469.01244,796.15067 471.29424,802.55967 476.89475,814.30517 C 478.20978,817.06297 479.28571,819.95607 479.28571,820.73417 C 479.28571,821.51217 479.70522,823.53077 480.21795,825.21977 C 480.73068,826.90887 481.62238,830.09077 482.1995,832.29077 C 482.77662,834.49077 484.54272,841.01577 486.12417,846.79077 C 489.12075,857.73337 490.224,863.58177 492.91532,882.79077 C 495.08691,898.29027 495.11805,900.17437 493.20896,900.55567 C 491.09054,900.97887 489.87525,896.42047 487.80625,880.29077 C 485.50483,862.34907 477.84286,832.93537 474.34564,828.61647 C 471.75447,825.41647 470.22747,827.08677 470.94673,832.33427 C 471.49578,836.34007 471.35332,836.79077 469.53813,836.79077 C 467.79663,836.79077 467.42555,837.66057 466.84184,843.11127 C 466.43418,846.91787 466.58543,850.39797 467.22213,851.86127 C 469.70888,857.57627 473.73318,877.21497 475.19943,890.79077 C 475.70435,895.46577 476.4291,900.07997 476.80999,901.04447 C 477.69959,903.29717 473.95084,911.36447 471.3734,912.74387 C 470.30486,913.31567 468.67709,913.49447 467.75614,913.14107 C 466.29806,912.58157 466.15646,913.06657 466.6603,916.89467 C 467.47641,923.09517 467.68835,934.72147 466.99785,935.41197 C 466.08512,936.32467 464.39193,934.90177 462.9109,931.97737 C 461.99571,930.17027 461.34197,923.29767 460.91386,910.98307 C 459.61538,873.63197 456.05613,844.08547 450.16952,821.79077 C 449.66125,819.86577 448.20106,817.02317 446.92466,815.47387 L 444.60392,812.65697 L 440.3528,814.87277 C 436.26104,817.00557 436.12775,817.22367 436.79723,820.68967 C 437.58539,824.77017 437.61991,831.61307 436.92882,846.76897 C 436.47058,856.81817 436.33504,857.34007 433.61836,859.51407 C 430.30836,862.16287 427.74601,862.43267 426.89762,860.22177 C 426.08964,858.11627 422.89034,859.18637 418.04315,863.18347 C 414.73917,865.90797 414.2968,866.78347 414.4521,870.29077 C 414.54952,872.49077 414.10193,875.27367 413.45747,876.47507 C 412.8102,877.68157 412.28571,882.69077 412.28571,887.66597 C 412.28571,895.94957 411.34731,899.18567 409.48521,897.32357 C 409.11812,896.95647 408.64718,893.27777 408.43867,889.14867 C 408.05348,881.52077 406.607,879.06947 404.01849,881.65797 C 402.23607,883.44037 399.4818,882.98397 398.78571,880.79077 C 397.95317,878.16767 396.64291,878.25767 395.1455,881.04077 C 394.30588,882.60127 394.03526,887.88727 394.26238,898.29077 C 395.01963,932.97747 394.82853,935.62117 391.85758,931.55817 C 391.03088,930.42757 390.3552,923.97147 389.90634,912.91407 C 389.52869,903.61097 388.7783,891.33997 388.23882,885.64507 C 387.69933,879.95017 386.97518,871.16377 386.6296,866.11967 C 386.28402,861.07557 385.68509,856.43697 385.29864,855.81167 C 384.05867,853.80537 379.75094,855.76267 378.06107,859.10017 C 376.63571,861.91517 376.52443,865.69487 377.11563,891.20997 C 377.48417,907.11547 377.56071,929.12867 377.28571,940.12817 L 376.78571,960.12727 L 374.29722,960.30947 C 370.10521,960.61637 366.72713,955.89707 364.80117,947.04297 C 363.87371,942.77927 362.03793,936.89487 360.72166,933.96657 C 358.67646,929.41667 358.02401,928.73907 356.23491,929.30687 C 351.954,930.66557 349.63073,929.12097 348.33611,924.05537 C 347.66638,921.43487 346.71571,918.27827 346.22351,917.04077 C 344.21325,911.98657 333.89515,916.09197 334.79871,921.58647 C 336.32301,930.85577 336.19881,931.78437 333.22938,933.31987 C 331.66499,934.12887 328.84278,934.79077 326.95781,934.79077 C 325.07285,934.79077 322.9704,935.46577 322.28571,936.29077 C 320.33634,938.63967 319.4512,938.12107 317.18661,933.30337 C 315.24969,929.18267 315.12649,927.69087 315.67947,915.05337 C 316.30294,900.80497 317.68917,876.83427 319.19338,854.29077 C 320.12828,840.27947 319.83008,838.77087 315.40735,835.13637 C 312.92113,833.09327 312.77467,832.45377 312.57196,822.75597 C 312.4544,817.13167 312.16761,812.33927 311.93465,812.10637 C 310.78406,810.95577 305.68932,841.04937 304.11578,858.29077 C 302.3583,877.54767 301.80926,881.29687 300.78571,881.03067 C 300.16433,880.86907 299.91774,876.23097 300.13443,868.78067 C 300.42323,858.85107 300.23575,856.79077 299.04336,856.79077 C 296.91134,856.79077 292.58384,865.55547 291.88407,871.29077 C 290.61608,881.68337 289.21804,902.91147 288.68999,919.79077 C 288.11635,938.12697 287.66375,939.79077 283.24957,939.79077 C 281.31781,939.79077 277.99321,936.40557 277.65379,934.09287 C 277.52448,933.21187 276.84135,932.13417 276.13573,931.69807 C 274.0722,930.42277 272.3108,932.66617 272.93302,935.77727 C 273.38024,938.01337 273.07529,938.72277 271.4443,939.24047 C 268.44191,940.19337 267.88146,946.21277 269.33402,961.90567 C 270.07384,969.89837 270.33371,981.10807 269.98026,989.78237 C 269.28501,1006.8456 269.93455,1012.1076 272.80092,1012.6333 C 275.69009,1013.1631 278.28341,1015.7859 278.30102,1018.1958 C 278.30944,1019.348 278.72104,1020.9302 279.21568,1021.7117 C 279.98025,1022.9197 280.50929,1022.8743 282.74595,1021.4088 C 284.20956,1020.4498 286.21701,1019.9516 287.27039,1020.2859 C 288.55428,1020.6934 289.51072,1020.2389 290.24112,1018.8741 C 290.845,1017.7458 293.17868,1016.3623 295.55203,1015.7256 C 303.4413,1013.6092 304.28571,1013.0461 304.28571,1009.9012 C 304.28571,1005.6967 308.25335,995.59517 310.70299,993.56297 C 312.00705,992.48117 314.52835,991.82697 317.44682,991.81297 C 321.43777,991.79397 322.48014,992.23317 324.69682,994.86747 C 326.12071,996.55967 327.28571,998.95627 327.28571,1000.1932 C 327.28571,1001.4301 328.38674,1003.4765 329.73244,1004.7408 C 331.07815,1006.005 332.31565,1007.9351 332.48244,1009.0299 C 333.05865,1012.8119 344.28571,1011.6737 344.28571,1007.8333 C 344.28571,1007.3853 345.88676,1006.2589 347.84361,1005.3303 C 352.39145,1003.1723 353.71055,1004.1872 355.33,1011.0903 C 356.82493,1017.4627 358.08516,1020.0328 359.33588,1019.2598 C 360.55005,1018.5094 360.54052,1013.7422 359.32099,1011.8136 C 358.6957,1010.8248 358.84251,1009.833 359.76504,1008.8136 C 361.2977,1007.1201 361.28571,1007.1712 361.28571,1002.3298 C 361.28571,998.69467 364.32751,994.79077 367.15982,994.79077 C 367.98316,994.79077 369.58581,993.93777 370.72126,992.89527 C 371.86671,991.84347 375.10536,990.69127 377.99661,990.30677 C 383.10327,989.62767 383.24743,989.67947 385.2028,992.89487 C 386.77124,995.47397 387.88381,996.18807 390.4036,996.23327 C 393.07315,996.28117 393.76252,996.79237 394.52664,999.29077 C 395.03128,1000.9408 395.61313,1002.837 395.81965,1003.5046 C 396.10456,1004.4255 396.95056,1004.455 399.32678,1003.6266 C 401.7824,1002.7706 402.75222,1002.8324 403.8194,1003.9129 C 405.46359,1005.5775 410.28571,1023.7143 410.28571,1028.2336 C 410.28571,1031.5573 411.02844,1033.0678 412.2818,1032.2932 C 412.67621,1032.0495 413.30611,1026.3242 413.68156,1019.5704 z M 298.47676,948.64537 C 297.84578,946.15947 297.52417,936.86997 297.69528,926.07227 C 297.85583,915.94087 297.58356,907.47487 297.08732,907.16817 C 296.55829,906.84117 296.56557,906.13517 297.10501,905.45177 C 297.60903,904.81317 298.33356,899.57557 298.71506,893.81257 C 299.09657,888.04957 299.57609,883.16707 299.78068,882.96247 C 299.98526,882.75787 300.6345,882.88827 301.22342,883.25227 C 301.86124,883.64647 302.09206,885.80977 301.79428,888.60237 C 301.3179,893.06997 301.23739,916.08777 301.61204,940.69907 C 301.79797,952.91277 300.43608,956.36447 298.47676,948.64537 z M 571.28571,1030.7251 C 571.28571,1028.6913 569.20762,1025.7908 567.75053,1025.7908 C 566.26959,1025.7908 565.66422,1029.836 566.95238,1031.1241 C 568.02102,1032.1928 571.28571,1031.8921 571.28571,1030.7251 z M 227.98199,1013.5231 C 229.33076,1012.1743 229.4731,1011.141 228.71952,1008.1692 C 227.51416,1003.4158 225.2559,1001.9336 221.93063,1003.7132 C 216.67684,1006.525 205.44784,1001.8788 197.83989,993.74527 C 192.69405,988.24387 187.71071,978.87087 186.20913,971.86927 C 185.6255,969.14797 184.50402,966.38687 183.71695,965.73367 C 182.54213,964.75867 181.9988,965.23317 180.68234,968.38387 C 179.58693,971.00557 179.42846,972.33837 180.18224,972.58957 C 180.78915,972.79187 181.28571,974.64347 181.28571,976.70427 C 181.28571,982.08677 189.5058,997.44467 195.92296,1004.0516 C 198.74845,1006.9606 203.92345,1010.8285 207.42296,1012.6468 C 213.05299,1015.5722 214.50688,1015.9093 220.04818,1015.5737 C 224.1588,1015.3247 226.88495,1014.6201 227.98199,1013.5231 z M 245.24671,1006.8637 C 245.95029,1005.549 245.968,998.63627 245.30243,985.11367 C 244.76582,974.21107 244.12253,955.09327 243.87289,942.62957 L 243.419,919.96837 L 247.35235,917.36537 C 251.05376,914.91587 252.53626,911.37467 250.64997,909.48837 C 250.30031,909.13867 249.83081,904.45117 249.60664,899.07167 C 249.38247,893.69217 248.84934,887.00897 248.42191,884.22017 C 247.99448,881.43137 248.06159,876.03137 248.57105,872.22017 C 249.08051,868.40897 249.69762,860.34077 249.94241,854.29077 C 250.53893,839.54747 251.00742,833.16727 251.8883,827.79077 C 252.29381,825.31577 252.5141,822.66167 252.37784,821.89287 C 252.24158,821.12397 252.78857,819.09897 253.59337,817.39287 C 254.39817,815.68667 255.83127,810.91577 256.77803,806.79077 C 261.7471,785.14074 273.2648,759.88158 284.6626,745.63782 C 288.75861,740.51907 289.13138,739.61458 288.57021,736.15652 C 288.11395,733.34487 286.66149,731.07887 283.07874,727.58916 L 278.20762,722.84454 L 276.67461,710.56764 C 275.83145,703.81535 274.0067,692.69066 272.6196,685.8461 C 270.28222,674.31241 270.21958,673.31227 271.76389,672.18305 C 272.68034,671.51292 274.11583,668.33892 274.95387,665.12972 C 276.50104,659.20496 276.27272,653.53631 274.15479,645.29075 C 267.29694,618.59162 264.28571,604.90916 264.28571,600.44758 C 264.28571,594.40804 263.14672,592.28655 259.1576,590.89593 C 251.63589,588.27385 249.28571,590.14281 249.28571,598.74645 C 249.28571,603.11512 248.95395,603.98479 246.93675,604.90388 C 244.10277,606.19513 244.3464,608.26175 249.04533,622.79075 C 253.71772,637.23768 256.62275,651.67972 255.20097,653.39285 C 253.79949,655.08153 251.66102,655.20704 250.70295,653.65684 C 250.31751,653.03319 249.93253,648.64569 249.84743,643.90684 C 249.68661,634.9509 248.708,631.76728 241.35855,616.29075 C 237.18817,607.50872 236.28432,604.14423 236.84055,599.47303 C 237.37869,594.95373 233.63154,582.52744 231.78571,582.7102 C 231.22023,582.76619 230.78571,585.95548 230.78571,590.04998 C 230.78571,596.49888 230.57777,597.29075 228.88434,597.29075 C 227.74753,597.29075 225.69281,595.41859 223.77447,592.63489 C 221.11004,588.76856 220.30934,586.22492 219.05267,577.63489 C 218.22036,571.94561 217.75262,565.15325 218.01324,562.54075 C 218.48859,557.77576 217.99374,557.05661 215.37872,558.71211 C 213.57954,559.85112 214.36759,573.05204 217.26386,590.29075 C 218.37273,596.89075 219.28908,604.31575 219.30021,606.79075 C 219.32444,612.18198 221.60252,623.39227 223.95917,629.71726 C 225.86458,634.83117 234.10814,650.15954 238.25034,656.29075 C 242.20855,662.14963 244.81339,667.41123 247.6566,675.29075 C 253.34197,691.04688 254.29236,699.47968 254.6157,737.03869 C 254.70921,747.90006 255.11165,756.78756 255.51003,756.78869 C 255.90841,756.78982 256.93246,755.44075 257.78571,753.79075 C 258.81477,751.80077 260.09752,750.79075 261.59578,750.79075 C 263.04499,750.79075 264.48962,749.71557 265.62664,747.79075 C 267.47168,744.66734 270.28571,743.72885 270.28571,746.23694 C 270.28571,747.03234 268.44336,751.19484 266.1916,755.48694 C 262.55594,762.41691 260.21933,767.86728 255.78744,779.75575 C 254.35564,783.59651 252.30256,784.97313 252.2553,782.12408 C 252.202,778.9103 250.69132,782.60136 248.29893,791.79077 C 244.94935,804.65677 242.2969,823.68957 241.6792,839.29077 C 241.37434,846.99077 240.7205,854.41577 240.22622,855.79077 C 239.73194,857.16577 239.09078,864.59077 238.80142,872.29077 C 238.51205,879.99077 237.75827,889.89077 237.12635,894.29077 C 235.83599,903.27547 236.62115,959.83467 238.2508,975.29077 C 238.77271,980.24077 239.44481,988.93427 239.74436,994.60957 C 240.42261,1007.4602 242.47786,1012.0373 245.24671,1006.8637 z M 613.3482,1003.7283 C 615.45,1001.6265 615.5377,999.70807 613.5622,999.04957 C 612.2248,998.60377 608.2857,1002.6574 608.2857,1004.4794 C 608.2857,1006.4592 611.0235,1006.053 613.3482,1003.7283 z M 617.2857,986.79077 C 619.4657,984.61077 619.799,983.22607 618.3581,982.33547 C 616.97,981.47767 611.8406,986.26157 612.6845,987.62697 C 613.72,989.30247 615.0081,989.06837 617.2857,986.79077 z M 617.457,975.13577 C 619.236,973.52577 619.9646,970.79077 618.6145,970.79077 C 617.3587,970.79077 614.2857,974.09537 614.2857,975.44577 C 614.2857,977.23527 615.2402,977.14197 617.457,975.13577 z M 617.9406,961.24767 C 618.2663,960.39897 618.2306,959.40237 617.8613,959.03297 C 617.0423,958.21397 614.0539,959.98607 613.5119,961.61217 C 612.9194,963.38987 617.2556,963.03287 617.9406,961.24767 z M 181.92658,956.26667 C 180.65463,953.52367 178.28571,952.93147 178.28571,955.35647 C 178.28571,956.21767 178.76709,957.82177 179.35545,958.92107 C 180.16592,960.43547 180.74539,960.65417 181.74632,959.82347 C 182.77662,958.96837 182.8163,958.18537 181.92658,956.26667 z M 613.054,945.95517 C 613.7515,945.51237 614.737,943.70417 615.2438,941.93677 C 617.4566,934.22147 606.2353,905.73237 596.7698,895.03397 C 587.0763,884.07807 574.87566,880.79047 569.56751,887.70407 C 566.29431,891.96737 570.8209,897.39487 578.49911,898.41347 C 582.7036,898.97117 584.3818,899.91117 589.2951,904.45987 C 592.4947,907.42227 596.4759,911.97107 598.1421,914.56837 C 601.9458,920.49767 608.1311,936.38337 608.9433,942.30907 C 609.5455,946.70307 610.5175,947.56517 613.054,945.95517 z M 569.25675,850.82987 C 570.06582,850.31817 570.48297,849.65467 570.18375,849.35547 C 569.88453,849.05627 568.77256,849.46747 567.71271,850.26927 C 565.60434,851.86437 566.88547,852.32947 569.25675,850.82987 z M 572.88345,837.75357 C 574.9194,836.97957 575.32329,836.42837 574.47568,835.58077 C 573.17037,834.27547 568.28571,836.00247 568.28571,837.76937 C 568.28571,839.06347 569.44875,839.05947 572.88345,837.75357 z M 217.27284,835.70007 C 223.74732,834.31157 226.03731,831.38557 224.37701,826.62287 C 223.76305,824.86167 222.53797,822.62197 221.6546,821.64587 C 220.11832,819.94837 219.88143,819.95637 216.20693,821.83097 C 211.32725,824.32037 207.73099,824.30347 200.93035,821.75897 C 191.98663,818.41277 186.45686,811.55617 180.8545,796.86617 C 178.72443,791.28089 176.28571,789.02792 176.28571,792.64537 C 176.28571,801.03607 183.60552,819.57077 189.26606,825.51327 C 193.20587,829.64927 200.3992,833.85527 206.21506,835.42337 C 212.0322,836.99187 211.33133,836.97437 217.27284,835.70007 z M 573.85143,825.57887 C 576.3877,824.42327 576.48165,824.11507 575.87388,818.94387 C 575.06412,812.05407 569.96961,801.62527 564.70713,796.08477 C 561.3961,792.59887 559.96066,791.79077 557.07957,791.79077 C 552.52727,791.79077 549.82332,794.52267 552.7292,796.18607 C 558.99105,799.77067 566.25301,811.49927 568.29205,821.32127 C 569.51264,827.20087 569.8032,827.42337 573.85143,825.57887 z M 177.28571,784.48188 C 177.28571,783.762 176.62502,782.2995 175.81751,781.23188 C 174.55101,779.55741 174.34495,779.51992 174.31751,780.95896 C 174.27266,783.31185 175.33731,785.79075 176.3927,785.79075 C 176.88385,785.79075 177.28571,785.20176 177.28571,784.48188 z M 173.60145,740.66579 C 177.93709,738.4328 180.28571,735.49911 180.28571,732.31644 C 180.28571,726.83047 175.39544,724.80205 171.78571,728.79075 C 168.14379,732.81502 157.81787,730.50695 148.06016,723.48756 C 140.20716,717.83837 134.03436,711.40964 131.78798,706.54075 C 130.00746,702.68158 128.91139,701.96937 127.71984,703.89733 C 126.2584,706.26199 132.86339,722.53147 137.14621,727.11649 C 140.44783,730.65106 150.32326,737.44914 155.711,739.89616 C 160.32413,741.99137 170.20255,742.41633 173.60145,740.66579 z M 576.81388,711.75962 C 578.50978,709.88567 578.52642,709.60289 577.02885,708.10531 C 575.53127,706.60774 575.20757,706.61193 572.84569,708.15949 C 570.35447,709.7918 569.59957,711.77128 570.95238,713.12408 C 572.23992,714.41162 574.99405,713.77051 576.81388,711.75962 z M 573.28571,702.20349 C 573.28571,699.22519 569.79905,697.11982 567.72179,698.8438 C 565.72541,700.50065 565.92813,702.43317 568.35262,704.85766 C 569.99566,706.5007 570.71343,706.68067 571.85262,705.73522 C 572.64082,705.08107 573.28571,703.49179 573.28571,702.20349 z M 123.00838,698.66808 C 125.2407,696.43576 120.83231,690.71687 118.15479,692.37166 C 116.59749,693.33413 119.25474,699.79075 121.20815,699.79075 C 121.58081,699.79075 122.39091,699.28555 123.00838,698.66808 z M 375.10213,696.46363 C 375.32638,694.56936 374.96226,693.79075 373.85213,693.79075 C 372.76892,693.79075 372.28571,694.7419 372.28571,696.87408 C 372.28571,700.70005 374.64125,700.35676 375.10213,696.46363 z M 563.28571,686.65878 C 563.28571,682.6667 560.19205,677.6568 555.47768,674.01442 C 551.00425,670.55818 542.03209,666.79075 538.27448,666.79075 C 533.7824,666.79075 528.358,669.62411 526.2588,673.06698 C 522.3919,679.40901 525.04045,684.50548 529.62975,679.55353 C 532.77307,676.16184 538.15921,675.32135 544.65313,677.20918 C 550.82091,679.00221 557.88696,683.82148 559.48249,687.32329 C 561.09038,690.85223 563.28571,690.46865 563.28571,686.65878 z M 401.22779,671.36054 C 401.88062,670.57392 402.27322,668.21142 402.10024,666.11054 C 401.82654,662.78664 401.46116,662.29075 399.28571,662.29075 C 397.53968,662.29075 396.81084,662.81853 396.86904,664.04075 C 396.91488,665.00325 397.02738,667.36575 397.11904,669.29075 C 397.29627,673.01249 399.1019,673.92208 401.22779,671.36054 z M 582.2857,647.51326 C 582.2857,646.26063 581.5846,644.23485 580.7278,643.0115 C 579.03772,640.59861 579.5332,638.79075 581.8846,638.79075 C 583.8449,638.79075 590.9566,635.13233 591.8703,633.65383 C 592.2897,632.97521 591.5328,631.7177 590.0583,630.64364 C 583.4913,625.85987 576.49181,610.89847 568.7921,585.18687 C 564.32589,570.27288 563.38493,562.87771 562.93601,539.16311 C 562.72645,528.09291 562.24284,518.53041 561.86133,517.91311 C 561.08125,516.65092 552.44178,516.40444 550.5745,517.59111 C 545.64307,520.72506 542.55359,546.78488 544.62316,567.79075 C 546.80767,589.96328 551.27195,608.29814 557.45343,620.48486 C 561.07199,627.61882 568.2089,636.18255 572.29791,638.29706 C 574.25105,639.30707 574.96211,640.3122 574.62781,641.59055 C 574.33062,642.72703 575.28239,644.64619 577.1174,646.61058 C 580.6235,650.3639 582.2857,650.65421 582.2857,647.51326 z M 552.28571,630.67272 C 552.28571,630.12272 551.83571,629.95083 551.28571,630.29075 C 550.73571,630.63067 550.28571,631.35878 550.28571,631.90878 C 550.28571,632.45878 550.73571,632.63067 551.28571,632.29075 C 551.83571,631.95083 552.28571,631.22272 552.28571,630.67272 z M 103.2704,621.54075 C 103.24808,619.719 102.04107,618.23927 99.94547,617.46456 C 97.01773,616.38223 96.13266,617.7042 98.03423,620.31926 C 99.88332,622.86214 103.29634,623.65833 103.2704,621.54075 z M 112.32646,609.09156 C 114.11283,607.057 116.43852,603.3445 117.49467,600.84156 C 118.55082,598.33861 119.82589,595.39075 120.32815,594.29075 C 124.16264,585.89284 130.21781,561.78758 132.26,546.79075 C 133.72155,536.05789 133.01162,481.86768 131.29737,473.31092 C 129.83029,465.98792 127.7621,461.79075 125.62074,461.79075 C 124.24186,461.79075 124.1205,462.55448 124.78646,467.04075 C 127.13385,482.85409 124.81562,525.76628 120.2509,550.99717 C 118.00775,563.39594 113.20394,576.6483 104.06088,595.66094 C 99.41369,605.32459 99.12044,608.00536 102.41071,610.74597 C 105.96625,613.70753 108.6696,613.25649 112.32646,609.09156 z M 341.90451,605.24979 C 345.10701,600.36215 340.76529,596.13454 334.8675,598.39774 C 332.40095,599.34424 332.98578,603.40966 335.92057,605.71817 C 339.29642,608.37361 339.88804,608.3273 341.90451,605.24979 z M 347.36592,572.07978 C 348.54175,568.98712 347.81029,564.79075 346.0954,564.79075 C 344.11686,564.79075 341.28571,568.00175 341.28571,570.24574 C 341.28571,574.97593 345.75253,576.32331 347.36592,572.07978 z M 286.4728,560.79075 C 288.80887,558.12851 290.12056,557.64529 295.28571,557.54411 C 295.56071,557.53873 296.99066,557.81742 298.46338,558.16343 C 301.24275,558.81644 304.28571,556.85365 304.28571,554.40788 C 304.28571,551.90671 300.24198,548.79074 296.99675,548.79125 C 293.19115,548.79185 284.68537,551.88619 278.45873,555.53524 L 274.00132,558.14746 L 277.15929,560.9691 C 281.1824,564.56375 283.19588,564.52519 286.4728,560.79075 z M 258.08571,554.59075 C 260.98259,551.69387 258.94319,547.79075 254.53266,547.79075 C 252.85167,547.79075 249.28571,550.56603 249.28571,551.87431 C 249.28571,554.97322 255.71776,556.9587 258.08571,554.59075 z M 475.28571,552.76692 C 475.28571,550.78532 472.55972,548.79075 469.85145,548.79075 C 467.43446,548.79075 467.99692,551.41842 470.90325,553.70454 C 473.79875,555.98215 475.28571,555.66402 475.28571,552.76692 z M 502.50607,544.14264 C 504.00226,543.38771 505.64123,541.98721 506.14821,541.0304 C 508.41314,536.75592 513.22015,516.34444 514.21183,506.79075 C 514.81128,501.01575 516.152,488.19075 517.19121,478.29075 C 518.23042,468.39075 519.03681,458.63879 518.9832,456.61972 C 518.92958,454.60066 519.6096,451.45066 520.49435,449.61972 C 521.3791,447.78879 523.32494,442.91575 524.81844,438.79075 C 526.31194,434.66575 528.6812,429.26575 530.08345,426.79075 C 532.94783,421.7351 549.93397,399.13088 551.70834,398.01355 C 552.33965,397.61601 559.11461,389.86575 566.76382,380.79075 C 574.41303,371.71575 584.3483,360.24075 588.8423,355.29075 C 593.3362,350.34075 598.091,344.71575 599.4084,342.79075 C 600.7259,340.86575 603.8247,336.64581 606.2947,333.41311 C 612.4795,325.31875 615.3196,320.79277 629.2764,296.79075 C 637.4157,282.79308 644.516,270.97194 648.7974,264.29075 C 650.5596,261.54075 653.4768,256.59075 655.2802,253.29075 C 657.0836,249.99075 659.2851,246.33107 660.1724,245.15814 C 664.8047,239.03473 680.6111,221.29047 687.7544,214.19449 C 692.237,209.74154 699.1906,202.31654 703.2069,197.69449 C 707.2232,193.07243 713.3302,186.14075 716.778,182.29075 C 720.2259,178.44075 724.74,173.04075 726.8095,170.29075 C 728.879,167.54075 732.9055,162.59075 735.7573,159.29075 C 738.6092,155.99075 742.1616,151.04075 743.6515,148.29075 C 745.1415,145.54075 750.4261,137.89075 755.3951,131.29075 C 760.364,124.69075 765.3609,117.49075 766.4993,115.29075 C 767.6377,113.09075 770.4521,108.81575 772.7534,105.79075 C 775.0548,102.76575 780.6574,94.718011 785.2036,87.906881 C 789.7498,81.095751 795.8909,72.248751 798.8504,68.246871 C 801.8099,64.244991 805.3073,58.567731 806.6223,55.630741 C 808.9631,50.402691 813.2506,43.423581 819.2031,35.151951 C 821.2055,32.369271 824.5676,29.729721 829.4638,27.096161 C 835.4194,23.892781 838.3222,21.367501 845.3972,13.234961 C 850.1554,7.7656414 855.5033,0.52010143 857.2816,-2.8662486 C 863.5271,-14.759389 867.4614,-18.505629 884.0472,-28.352679 C 897.2279,-36.178099 902.1018,-40.121889 903.3806,-43.996879 C 904.8964,-48.589599 903.5724,-49.773719 899.0394,-47.879689 C 897.1091,-47.073179 895.2164,-45.906199 894.8334,-45.286389 C 893.4695,-43.079519 871.9804,-33.211139 868.5357,-33.209749 C 867.8482,-33.209479 867.2857,-34.310889 867.2857,-35.657329 C 867.2857,-38.072939 868.5467,-39.708139 884.29,-57.707449 C 888.1376,-62.106449 891.2957,-66.156449 891.3079,-66.707449 C 891.3202,-67.258439 892.2102,-68.834249 893.2857,-70.209249 C 896.1816,-73.911409 895.7529,-80.209249 892.6051,-80.209249 C 891.7984,-80.209249 888.8764,-77.734249 886.1117,-74.709249 C 883.347,-71.684249 880.6358,-69.209249 880.0867,-69.209249 C 879.5376,-69.209249 876.231,-66.136539 872.7386,-62.381009 C 865.3714,-54.458609 858.9925,-49.724069 856.8127,-50.560539 C 855.835,-50.935699 855.2857,-52.440439 855.2857,-54.743609 C 855.2857,-58.769459 856.4656,-61.522079 859.7717,-65.209249 C 866.3451,-72.540229 880.8664,-96.295179 879.5681,-97.593489 C 877.8593,-99.302309 874.564,-97.646849 868.9674,-92.268069 C 865.5675,-89.000429 860.5357,-84.162929 857.7857,-81.518069 C 852.2261,-76.171039 847.4323,-70.841619 842.4412,-64.459249 C 840.6132,-62.121749 838.489,-60.209249 837.7207,-60.209249 C 835.9373,-60.209249 834.8694,-64.397259 835.7446,-67.959249 C 837.0604,-73.314529 843.2057,-84.807979 848.709,-92.206319 C 851.7762,-96.329699 854.2857,-100.05632 854.2857,-100.4877 C 854.2857,-102.75751 850.7888,-102.01481 846.4379,-98.820929 C 835.6128,-90.874589 822.286,-73.718969 816.8713,-60.759829 C 815.3229,-57.054069 811.0802,-53.690389 808.9739,-54.498659 C 808.1808,-54.802989 806.9398,-58.972759 805.8905,-64.858609 C 804.9246,-70.276459 803.4434,-76.169009 802.599,-77.953159 C 799.7333,-84.007679 791.6995,-89.305749 789.8708,-86.346949 C 789.5777,-85.872689 789.9877,-81.710189 790.782,-77.096949 C 792.3916,-67.748069 792.2449,-43.046999 790.4605,-22.944599 C 789.8861,-16.474039 789.6717,-9.6057686 789.9839,-7.6817686 C 790.4934,-4.5422486 790.0509,-3.6367186 785.6686,1.1502414 C 779.8256,7.5328514 773.7293,15.147731 761.3959,31.469331 C 756.3344,38.167541 746.2515,49.915651 738.9894,57.576231 C 731.7274,65.236811 723.3107,74.576631 720.2857,78.331401 C 717.2607,82.086161 713.2107,86.763821 711.2857,88.726201 C 705.6413,94.480171 679.8229,117.61703 675.6319,120.67689 C 667.2122,126.82416 640.0978,157.59779 629.7857,172.71042 C 625.9357,178.35267 619.9391,186.84031 616.46,191.57184 C 612.9809,196.30336 608.1124,203.30019 605.6411,207.12034 C 602.9284,211.31386 593.1401,222.2336 580.9386,234.67841 C 552.39551,263.79056 546.24707,270.99521 531.48945,292.62213 C 522.71111,305.48657 504.6463,326.7926 499.12777,330.7902 C 496.8496,332.4405 494.18385,333.79075 493.20389,333.79075 C 488.71346,333.79075 465.17719,343.95202 457.84309,349.057 C 454.65666,351.27495 442.82318,362.93136 430.70323,375.79075 C 426.81542,379.91575 419.0052,387.79075 413.34718,393.29075 C 405.45803,400.95957 400.87158,406.58638 393.67279,417.42792 C 388.5099,425.20337 384.28571,431.82107 384.28571,432.13392 C 384.28571,432.44677 383.01489,434.86004 381.46167,437.49674 C 379.90845,440.13345 377.80597,444.54075 376.78948,447.29075 C 375.77299,450.04075 374.62333,452.74075 374.23467,453.29075 C 373.84601,453.84075 371.04767,460.81575 368.01614,468.79075 C 362.66143,482.87726 357.1165,503.73589 355.82065,514.66712 L 355.1833,520.04348 L 357.9845,519.33418 C 359.52517,518.94406 365.81948,518.38954 371.97186,518.10191 C 387.31539,517.38459 400.94176,520.37146 437.02249,532.36087 C 476.80812,545.5814 493.64926,548.61145 502.50607,544.14264 z M 346.78225,544.79635 C 348.15236,542.57946 347.40202,528.61721 345.77971,526.14124 C 343.58286,522.78844 338.3349,523.16039 336.61574,526.79075 C 334.72626,530.78079 336.3819,541.64047 339.23149,543.94793 C 341.69191,545.94025 345.79065,546.4008 346.78225,544.79635 z M 226.96878,542.72115 C 228.51608,542.13286 230.55965,540.94783 231.51004,540.08773 C 233.38221,538.39344 274.45231,527.73061 288.28571,525.34734 C 298.0908,523.65808 306.38013,523.38226 318.03571,524.35746 C 326.74208,525.0859 327.09322,524.90537 325.36768,520.5878 C 324.86277,519.32442 322.99694,513.34075 321.2214,507.29075 C 316.53678,491.32833 315.97179,489.65247 310.26465,474.79075 C 303.05746,456.02281 302.54261,454.26893 299.10973,436.79075 C 296.64676,424.25075 296.08441,418.93064 296.16498,408.93209 L 296.26457,396.57342 L 293.16938,393.68209 C 291.10316,391.75194 289.01979,390.79075 286.90246,390.79075 C 282.69667,390.79075 280.50018,389.11372 273.44162,380.51336 C 270.18133,376.54093 264.7097,371.04075 261.28245,368.29075 C 232.29947,345.03504 221.03841,333.88557 211.73215,319.23148 C 196.06231,294.55699 187.32592,283.49993 170.61622,267.19383 C 164.36185,261.09052 157.56637,253.84093 155.51517,251.08362 C 151.72779,245.99248 144.75282,232.58811 139.75227,220.79075 C 138.23694,217.21575 135.48705,211.00441 133.64141,206.98778 C 131.79578,202.97114 130.28571,199.42355 130.28571,199.10424 C 130.28571,198.47875 118.23922,179.23185 114.75513,174.29075 C 110.74426,168.60256 97.78429,151.28961 97.16372,150.79075 C 96.82163,150.51575 93.26685,145.34075 89.26422,139.29075 C 85.26158,133.24075 79.91647,125.66575 77.3862,122.45741 C 68.97719,111.79494 61.07026,102.34971 56.22678,97.181411 C 53.39766,94.162571 51.01293,90.480211 50.39828,88.181411 C 46.45767,73.443281 46.48773,73.730351 48.48308,69.893051 C 49.51331,67.911781 51.7567,64.040751 53.46838,61.290751 C 58.0699,53.897901 62.28571,45.163111 62.28571,43.021991 C 62.28571,40.533551 66.47494,28.300311 69.06706,23.219341 C 71.85403,17.756431 79.29996,9.6365514 83.69089,7.2718814 C 87.93979,4.9837014 88.49176,1.6270914 84.9958,-0.66354857 C 82.89977,-2.0369186 82.05894,-1.9225986 75.06458,0.68671143 C 64.29105,4.7058914 59.02382,9.3923014 54.8319,18.688331 C 52.97035,22.816491 49.15181,25.082641 47.28427,23.167531 C 46.81401,22.685301 45.95506,17.993641 45.37549,12.741621 C 43.78266,-1.6923386 41.15944,-7.6718186 35.02936,-10.841819 C 32.12315,-12.344669 31.84443,-12.328209 30.54213,-10.576729 C 28.95631,-8.4439286 29.26207,-4.9151786 31.89946,5.0880114 C 33.56456,11.403431 33.57595,12.076861 32.06014,14.588011 C 29.3098,19.144361 23.28571,18.376731 23.28571,13.469911 C 23.28571,12.328141 22.11666,7.5612514 20.68782,2.8768214 C 18.6685,-3.7434886 17.24711,-6.4831386 14.30547,-9.4247786 C 12.22401,-11.506239 9.55693,-13.209249 8.37861,-13.209249 C 5.29441,-13.209249 3.77098,-8.7657786 5.29299,-4.2092486 C 5.93599,-2.2842486 7.12663,1.7657514 7.93885,4.7907514 C 11.36289,17.543131 11.32391,16.843461 8.7536,19.413771 C 7.44626,20.721111 5.72519,21.790751 4.92899,21.790751 C 3.42112,21.790751 1.32411,17.025161 1.23308,13.391531 C 1.20413,12.236101 -0.48337,7.9157514 -2.51692,3.7907514 C -5.37097,-1.9985986 -6.75379,-3.7855786 -8.57963,-4.0439086 C -9.88056,-4.2279786 -11.3741,-3.9494386 -11.8986,-3.4249386 C -12.81275,-2.5107886 -11.62069,18.270221 -10.1134,27.696321 C -9.49695,31.551371 -9.61248,31.774561 -13.08058,33.428381 C -15.06531,34.374831 -16.83528,34.956051 -17.01386,34.719971 C -17.19243,34.483901 -19.01684,31.711221 -21.06811,28.558471 C -24.9142,22.647091 -31.44664,17.790751 -35.55215,17.790751 C -36.74133,17.790751 -37.71429,17.978951 -37.71429,18.208961 C -37.71429,18.438981 -37.96888,19.290641 -38.28005,20.101531 C -38.61908,20.985021 -37.01601,23.636161 -34.28005,26.716701 C -31.76888,29.544151 -29.71429,32.350451 -29.71429,32.952931 C -29.71429,33.555411 -28.13929,35.791691 -26.21429,37.922431 C -24.28929,40.053171 -22.71429,42.838541 -22.71429,44.112131 C -22.71429,51.677601 -13.26875,69.682471 -6.21921,75.554691 C -1.74839,79.278841 4.09078,87.137001 4.89845,90.516461 C 5.26312,92.042321 5.91104,93.740751 6.33828,94.290751 C 7.80428,96.178001 12.03993,108.37657 12.77664,112.83307 C 13.18193,115.28479 14.78762,120.44075 16.34483,124.29075 C 18.82206,130.41539 23.5125,144.83195 30.17223,166.79075 C 35.09136,183.01033 44.28297,208.04712 48.15924,215.78511 C 53.30425,226.05581 57.03521,231.09047 69.65404,244.79075 C 74.97318,250.56575 80.29179,257.31575 81.47317,259.79075 C 82.65455,262.26575 85.50449,267.66575 87.80638,271.79075 C 96.49762,287.36549 97.28571,288.89529 97.28571,290.19137 C 97.28571,290.92269 98.11357,292.59422 99.1254,293.90589 C 100.13723,295.21756 102.43122,298.98612 104.22315,302.28047 C 106.01509,305.57481 109.24411,311.23756 111.39874,314.86434 C 113.55338,318.49113 116.81192,325.11234 118.63996,329.57814 C 120.46799,334.04394 122.40863,338.28119 122.95249,338.99426 C 123.49634,339.70733 125.21216,342.54075 126.76542,345.29075 C 133.19287,356.6704 146.41785,376.555 153.39429,385.32896 C 156.90957,389.74997 162.01897,396.27497 164.7485,399.82896 C 170.94107,407.89198 189.23965,428.00588 198.8293,437.29075 C 207.50329,445.68906 217.98519,457.99359 219.57881,461.64824 C 220.21256,463.10162 222.35192,466.99075 224.33294,470.29075 C 226.31396,473.59075 228.46375,477.8204 229.11025,479.68997 C 231.27254,485.94293 230.49588,496.50634 226.67238,512.84767 C 224.68505,521.34136 222.71762,529.86575 222.30032,531.79075 C 221.88302,533.71575 221.03402,536.55754 220.41365,538.10585 C 219.79328,539.65415 219.28571,541.56665 219.28571,542.35585 C 219.28571,544.06966 222.96216,544.24446 226.96878,542.72115 z M 339.46103,515.13209 C 340.96532,513.77072 341.74964,513.6811 343.83683,514.63209 C 347.28638,516.20381 347.28571,516.20418 347.28571,512.72613 C 347.28571,511.04059 348.13005,507.55309 349.16202,504.97613 C 350.194,502.39917 352.16488,496.91575 353.54177,492.79075 C 354.91865,488.66575 357.69737,480.79075 359.71668,475.29075 C 361.736,469.79075 364.99251,460.79075 366.95338,455.29075 C 371.89279,441.43629 383.95234,416.62912 390.87182,406.08916 C 394.04872,401.25004 399.28089,394.53752 402.49888,391.17246 C 405.71687,387.8074 408.73984,383.69409 409.21659,382.03176 C 410.30372,378.24116 408.18038,367.43684 405.84009,364.85084 C 404.11608,362.94583 403.68193,362.81143 391.70826,360.47587 C 382.25696,358.63232 373.71454,354.59785 368.53571,349.53179 C 366.19821,347.24519 364.28571,345.04021 364.28571,344.63183 C 364.28571,344.22346 367.65684,345.49027 371.77711,347.44698 C 378.89626,350.82785 379.82797,351.01124 390.52711,351.13754 C 405.00668,351.30846 408.74371,349.73049 418.97848,339.12382 C 422.99746,334.95881 426.28571,331.08805 426.28571,330.52214 C 426.28571,329.95622 428.29941,327.04719 430.76059,324.05761 C 443.71386,308.32339 446.34289,298.25621 446.8909,262.29075 C 447.06689,250.74075 447.43105,238.86534 447.70015,235.90095 C 448.12568,231.21326 447.82857,229.97573 445.41937,226.40095 C 443.14206,223.02187 442.81929,221.82977 443.60482,219.69923 C 444.13035,218.27389 444.24868,215.02952 443.86779,212.48951 C 442.98222,206.58411 438.10896,202.3957 431.03251,201.45799 C 428.41825,201.11157 424.51299,199.92702 422.35415,198.82566 C 417.68673,196.44452 410.39687,188.25291 406.74952,181.29075 C 402.12838,172.4698 402.05956,172.4611 395.3872,179.854 C 382.47296,194.16282 375.57575,197.77369 360.28571,198.23057 C 350.06823,198.53587 346.28485,199.57325 339.33993,203.97377 C 336.89475,205.52311 333.88381,206.79075 332.64895,206.79075 C 331.41409,206.79075 330.10748,207.27012 329.74537,207.85602 C 329.38326,208.44192 325.81919,210.47239 321.82522,212.36817 L 314.56344,215.81505 L 312.47834,224.0529 C 311.33153,228.58372 310.17386,233.19075 309.90574,234.29075 C 309.63761,235.39075 308.69245,238.27055 307.80537,240.69031 C 306.776,243.49819 306.44495,246.21155 306.89031,248.19031 C 307.27411,249.89555 307.50141,253.34985 307.39543,255.86653 C 307.28945,258.38322 307.69681,261.74184 308.30068,263.33013 C 308.90455,264.91843 309.62091,272.08433 309.89259,279.25435 C 310.28301,289.55813 310.04153,293.44363 308.74055,297.79075 C 307.83525,300.81575 306.86466,305.23575 306.58369,307.61298 C 306.08306,311.84871 304.0667,313.98679 302.28277,312.17353 C 301.80508,311.688 300.50774,307.89514 299.39978,303.74495 C 297.03134,294.87329 291.95829,283.15097 289.22375,280.23116 C 287.97698,278.89992 287.07192,276.0387 286.66446,272.14032 C 286.03917,266.15787 286.06503,266.0781 289.85989,262.28324 C 294.07108,258.07205 295.01509,253.09156 292.14593,250.2224 C 290.75955,248.83602 289.99435,248.89434 284.46541,250.80774 C 281.08801,251.97656 277.97395,252.71611 277.54529,252.45118 C 275.60487,251.25194 270.33572,254.93417 267.30971,259.60411 C 262.5438,266.95916 259.69439,267.1994 251.43871,260.94219 C 248.3672,258.61421 248.14336,258.08244 248.71914,254.48171 C 249.23179,251.27577 250.66724,249.30645 256.56614,243.7163 C 261.69489,238.85598 264.79933,236.6946 267.28571,236.2531 C 269.21071,235.91129 272.48232,234.99243 274.55595,234.21119 C 276.62958,233.42995 279.50324,232.79075 280.94187,232.79075 C 283.47367,232.79075 283.53741,232.64376 282.9294,228.20782 C 282.58391,225.68721 282.04572,223.21145 281.73342,222.70614 C 281.42112,222.20083 278.83013,222.03651 275.97566,222.34099 C 271.42782,222.8261 270.13105,222.51157 265.49434,219.79882 C 257.1701,214.92862 254.95939,209.94964 257.44204,201.66331 C 258.76566,197.24545 263.56673,193.79075 268.38271,193.79075 C 272.99244,193.79075 278.83454,190.2657 281.97538,185.5891 C 284.2126,182.25795 285.81119,181.06804 289.41762,180.04944 C 291.94377,179.33596 294.80691,177.87231 295.78014,176.7969 C 297.49096,174.90647 297.45406,174.80474 294.66769,173.73032 C 293.0826,173.11912 289.63895,172.27342 287.01514,171.85099 C 284.39132,171.42856 281.97323,170.8116 281.6416,170.47997 C 280.47605,169.31443 282.22832,166.85097 285.98794,164.3696 C 288.07671,162.991 292.41275,159.82179 295.62357,157.3269 C 302.88755,151.68262 304.76032,151.44732 303.85123,156.29317 C 303.43511,158.51131 303.72173,160.98644 304.63288,163.04317 C 305.42417,164.82934 306.34255,167.10928 306.67372,168.1097 C 307.3266,170.08192 308.54637,169.91888 315.53571,166.92517 C 319.71153,165.13656 320.23657,163.18659 317.46421,159.76286 C 315.70221,157.58688 315.70221,157.3967 317.46421,153.94063 C 318.46603,151.97561 319.28571,149.77389 319.28571,149.04792 C 319.28571,148.32195 319.999,147.45426 320.8708,147.11972 C 322.06231,146.6625 322.30342,145.6987 321.84183,143.23822 C 321.26745,140.17648 321.45846,139.88884 324.79798,138.7867 C 329.62045,137.19514 330.99178,137.93923 333.34235,143.4229 L 335.34614,148.09753 L 333.29204,150.28401 C 330.83772,152.89652 329.28571,157.86124 329.28571,163.09989 C 329.28571,168.48206 330.77542,170.79075 334.24831,170.79075 C 338.54145,170.79075 340.86865,167.16569 341.6839,159.20845 C 342.06008,155.53672 343.01149,151.28793 343.79815,149.7667 C 346.31243,144.90461 347.12272,139.36112 345.78284,136.18857 C 344.77853,133.81057 344.82565,132.82552 346.04552,130.69725 C 347.46979,128.21234 347.37559,127.94729 343.79557,124.36728 C 339.50183,120.07353 339.01532,120.09284 327.8157,125.00139 C 320.07561,128.3937 316.49026,130.66821 311.25088,135.50991 C 308.31573,138.22227 306.64889,138.88797 301.42571,139.43391 C 294.10235,140.19935 290.01795,142.57457 286.15138,148.31644 C 284.67942,150.50231 281.64458,153.41575 279.4073,154.79075 C 277.13478,156.1874 275.32763,158.08097 275.31261,159.08124 C 275.24734,163.426 266.43721,170.79075 261.30505,170.79075 C 256.75713,170.79075 241.89398,184.19303 238.57052,191.29075 C 237.79792,192.94075 236.52441,195.41575 235.74049,196.79075 C 234.95658,198.16575 234.30625,200.41575 234.29533,201.79075 C 234.2844,203.16575 233.16681,206.09075 231.8118,208.29075 C 227.41118,215.43558 228.94796,225.84964 235.29663,231.90585 L 239.08631,235.52096 L 235.06361,238.90585 C 231.74491,241.69836 230.89775,243.16579 230.22292,247.29075 C 229.07048,254.3351 229.10276,262.55965 230.28571,263.29075 C 230.83571,263.63067 231.28571,265.30135 231.28571,267.00338 C 231.28571,271.06581 238.0092,277.48827 243.18293,278.36791 C 245.16446,278.70481 248.14183,279.43971 249.79932,280.00101 L 252.81292,281.02156 L 252.4382,288.44207 C 252.10454,295.0495 252.33771,296.26953 254.56618,299.57666 C 255.94266,301.61941 257.36305,304.97825 257.7226,307.04075 C 258.49146,311.45112 259.46141,311.66214 263.46808,308.29075 C 267.07231,305.25799 268.69799,305.16529 271.55762,307.82945 C 272.76118,308.95073 274.71293,310.11086 275.89485,310.4075 C 277.91192,310.91375 278.03587,311.51436 277.91475,320.19505 C 277.79385,328.86011 277.97724,329.75371 280.82322,334.367 C 284.37668,340.12711 287.63432,341.31451 289.37892,337.48553 C 290.19106,335.70307 290.19367,334.48729 289.38859,332.98298 C 288.78201,331.84957 288.28571,329.51307 288.28571,327.79075 C 288.28571,326.06843 287.86678,323.87648 287.35475,322.91975 C 286.00704,320.40154 287.21953,312.79075 288.96841,312.79075 C 290.72615,312.79075 293.12677,318.35199 293.94456,324.31844 C 294.42247,327.80515 295.38564,329.55174 298.26503,332.1531 C 301.58617,335.15355 302.03823,336.16403 302.62366,341.89575 C 303.94456,354.82836 306.93978,371.90324 310.67442,387.79075 L 312.20236,394.29075 L 308.64982,401.27004 C 305.94912,406.57581 305.10656,409.44717 305.13598,413.24485 C 305.18973,420.18476 306.29043,430.70625 307.33768,434.29075 C 307.81975,435.94075 309.59988,442.91575 311.29353,449.79075 C 312.98718,456.66575 315.4164,465.44075 316.6918,469.29075 C 317.9672,473.14075 319.07432,477.64075 319.15207,479.29075 C 319.22981,480.94075 320.22156,486.11575 321.35594,490.79075 C 326.04717,510.1241 329.44047,516.79075 334.58986,516.79075 C 336.26096,516.79075 338.45299,516.04435 339.46103,515.13209 z M 280.78838,307.80653 C 280.01942,303.25514 276.87717,300.43151 273.17727,300.96718 C 271.17929,301.25645 270.76488,300.56694 269.26827,294.46326 C 267.04624,285.40104 268.06553,274.38941 270.72769,278.69687 C 271.0357,279.19524 272.16657,279.37316 273.24074,279.09226 C 274.52213,278.75717 276.71928,279.83155 279.6296,282.21634 C 287.58302,288.73357 290.85413,300.70823 286.64823,307.90972 C 283.76038,312.85442 281.63489,312.81699 280.78838,307.80653 z M 285.11251,299.35614 C 285.48225,296.21035 283.54918,290.79075 282.0574,290.79075 C 281.51528,290.79075 281.34488,291.50255 281.67872,292.37254 C 282.01257,293.24252 282.28571,295.98002 282.28571,298.45587 C 282.28571,303.49919 284.54112,304.21748 285.11251,299.35614 z M 384.28571,309.27776 C 381.81071,308.48737 378.43571,306.65321 376.78571,305.20185 C 371.52585,300.57522 369.48782,299.62408 364.83405,299.62408 C 360.32374,299.62408 360.28571,299.59551 360.28571,296.20742 C 360.28571,293.85696 360.74774,292.79075 361.76629,292.79075 C 363.29944,292.79075 373.75561,286.45749 374.67291,284.97326 C 375.78257,283.17779 386.36953,281.38391 389.30874,282.49334 C 390.86534,283.08089 394.21429,283.3277 396.75084,283.04179 C 400.15697,282.65787 401.81021,282.9425 403.07423,284.13045 C 408.43935,289.1727 412.79806,292.22902 414.66507,292.25792 C 416.53823,292.28692 416.76088,292.81429 416.57294,296.77694 C 416.33738,301.74347 414.52002,303.79025 410.34458,303.79154 C 408.9372,303.79197 404.9777,305.12074 401.5457,306.74435 C 393.57047,310.51727 389.86853,311.06064 384.28571,309.27776 z M 408.43877,297.29075 C 408.51884,296.74075 404.64385,294.83684 399.8277,293.05983 C 392.22295,290.25392 390.5261,289.95473 386.92838,290.78538 C 384.64991,291.31144 381.11348,291.75286 379.06964,291.7663 C 375.2628,291.79135 368.28571,294.51495 368.28571,295.97596 C 368.28571,296.4241 371.54821,296.79764 375.53571,296.80606 C 379.52321,296.81448 383.46071,297.26531 384.28571,297.80791 C 386.23756,299.09161 408.2452,298.62039 408.43877,297.29075 z M 407.80685,267.82496 C 406.89092,266.34295 410.0924,263.86442 412.97669,263.82255 C 415.45803,263.78654 416.96127,265.51519 415.61733,266.85913 C 414.06882,268.40764 408.58599,269.08563 407.80685,267.82496 z M 384.30102,265.54075 C 384.36596,260.23984 394.3444,258.80171 398.03571,263.56127 C 400.22753,266.38739 399.44691,266.79075 391.78571,266.79075 C 386.44421,266.79075 384.29012,266.431 384.30102,265.54075 z M 440.73571,245.95257 C 440.21321,245.49157 434.83571,244.10234 428.78571,242.86541 C 422.73571,241.62847 415.31071,239.48695 412.28571,238.10647 C 407.33875,235.8489 406.97799,235.48059 408.69796,234.44363 C 409.7497,233.80955 411.47664,232.46381 412.53561,231.4531 C 419.72474,224.59161 431.269,225.55669 438.35952,233.61194 C 440.51892,236.06516 442.29185,239.02147 442.29936,240.18154 C 442.30687,241.34161 442.58436,243.30325 442.916,244.54075 C 443.5255,246.81512 442.48037,247.49188 440.73571,245.95257 z M 436.15078,240.45333 C 437.78599,238.48302 433.20026,234.36571 430.37079,235.26375 C 427.60849,236.14047 427.74142,237.21745 430.92057,239.71817 C 434.01438,242.15176 434.66528,242.24325 436.15078,240.45333 z M 423.00202,236.15682 C 423.51944,234.58375 420.52514,231.79075 418.32127,231.79075 C 415.68058,231.79075 414.78604,234.95221 416.97403,236.55211 C 419.03273,238.05747 422.45058,237.83335 423.00202,236.15682 z M 348.28571,235.30279 C 344.16071,233.94201 339.32321,232.82012 337.53571,232.8097 C 335.74821,232.79928 334.29838,232.45325 334.31386,232.04075 C 334.32933,231.62825 338.9049,228.25325 344.48178,224.54075 C 355.4092,217.26642 356.63929,216.96374 368.50895,218.62836 C 372.7888,219.22857 373.51631,219.7399 376.25895,224.07548 C 377.92367,226.70708 379.28571,229.26196 379.28571,229.753 C 379.28571,230.24404 380.73449,231.77963 382.50521,233.16543 C 384.27594,234.55124 385.44847,235.96133 385.11082,236.29897 C 384.77318,236.63661 378.03691,237.10728 370.14132,237.3449 C 356.90146,237.74337 355.20279,237.58465 348.28571,235.30279 z M 355.83218,230.04075 C 355.79283,227.71229 355.31279,227.2446 352.70054,226.98968 C 350.75032,226.79937 349.10877,227.29903 348.23828,228.3479 C 347.04933,229.78049 347.12123,230.19731 348.76459,231.39896 C 349.81145,232.16445 351.84037,232.79075 353.27331,232.79075 C 355.46009,232.79075 355.87118,232.34896 355.83218,230.04075 z M 371.28571,230.39774 C 371.28571,227.70088 368.68587,226.21376 366.7622,227.81026 C 364.74588,229.48366 366.16695,232.79075 368.90234,232.79075 C 370.74952,232.79075 371.28571,232.25239 371.28571,230.39774 z M 240.25817,223.25757 C 239.55834,222.41432 238.77099,219.48932 238.5085,216.75757 C 238.1256,212.77267 238.33148,211.79075 239.5499,211.79075 C 241.25823,211.79075 244.28571,218.51607 244.28571,222.31099 C 244.28571,225.11668 242.20664,225.60532 240.25817,223.25757 z M 438.28571,221.08211 C 437.46071,220.7792 434.49229,219.46472 431.68922,218.16106 C 425.37442,215.22413 421.71071,215.23824 412.78571,218.23386 C 408.93571,219.52608 405.40652,220.22833 404.94307,219.79441 C 404.03758,218.94663 405.876,214.76439 407.68541,213.55582 C 409.70465,212.20711 419.05305,209.79075 422.25172,209.79075 C 426.89264,209.79075 435.26878,212.79079 436.60594,214.93192 C 437.24442,215.95428 438.26133,216.79075 438.86574,216.79075 C 439.47016,216.79075 440.47726,217.91575 441.10376,219.29075 C 442.29549,221.90633 441.6493,222.3171 438.28571,221.08211 z M 380.15088,212.76791 C 378.26193,210.63354 376.56343,209.76716 374.15088,209.70742 C 372.30004,209.66158 369.85843,209.51807 368.72509,209.38849 C 367.59175,209.25891 360.93728,209.48697 353.93738,209.8953 C 343.76042,210.48894 340.50509,211.05378 337.69084,212.71422 C 333.12246,215.40964 332.9434,215.35339 334.78084,211.80017 C 337.50469,206.53283 339.36473,206.00624 357.13483,205.47159 C 375.36424,204.92312 380.66457,205.91435 384.31453,210.55452 C 388.21481,215.51292 384.38301,217.5499 380.15088,212.76791 z M 564.00627,502.98462 C 566.15257,501.62091 568.44276,493.55139 567.75077,489.79075 C 566.81429,484.70141 565.80607,483.91555 560.99659,484.52621 C 554.74598,485.31984 554.28571,486.0272 554.28571,494.83987 C 554.28571,501.43159 554.5576,502.71515 556.03571,503.10142 C 558.9455,503.86183 562.71252,503.80663 564.00627,502.98462 z M 571.45697,468.13576 C 572.46278,467.22552 573.28571,465.20052 573.28571,463.63576 C 573.28571,460.99315 573.00697,460.79075 569.3675,460.79075 C 563.69922,460.79075 562.28571,461.60058 562.28571,464.84805 C 562.28571,469.43262 567.82841,471.41956 571.45697,468.13576 z M 125.10903,447.45788 C 125.30041,446.47112 124.79027,445.79075 123.85903,445.79075 C 122.9314,445.79075 122.28571,446.64575 122.28571,447.87408 C 122.28571,450.31113 124.62248,449.96665 125.10903,447.45788 z M 578.89366,444.04075 C 580.9033,441.3934 580.5634,440.62595 577.53571,440.97433 C 575.5667,441.20089 574.69496,441.92974 574.46616,443.54075 C 574.07217,446.31491 576.92294,446.63685 578.89366,444.04075 z M 118.70392,431.18376 C 121.1148,430.25862 120.59175,427.03738 117.72573,425.15949 C 115.38288,423.6244 115.03053,423.61736 113.57142,425.07646 C 112.11232,426.53557 112.11936,426.88792 113.65445,429.23077 C 115.41178,431.9128 116.10519,432.18099 118.70392,431.18376 z M 113.71428,408.21932 C 115.94462,405.98898 115.66508,404.08543 112.83488,402.23101 C 109.45705,400.01777 106.85363,400.72291 106.47862,403.95261 C 106.2643,405.79836 106.86021,407.07974 108.45112,408.19406 C 111.27971,410.17527 111.75604,410.17756 113.71428,408.21932 z M 461.37959,344.2422 C 465.0781,342.32963 468.26965,337.28211 468.30421,333.29075 C 468.35004,327.99737 472.01343,324.86663 487.011,317.30383 C 492.94907,314.30945 496.14392,310.43934 496.992,305.21324 C 497.32318,303.17241 498.2699,301.39754 499.18067,301.11 C 507.61983,298.44569 511.68492,294.60267 517.49704,283.7942 C 519.85581,279.40774 522.18719,275.81251 522.6779,275.80479 C 523.1686,275.79707 525.9811,273.73095 528.9279,271.21343 L 534.28571,266.6361 L 534.28571,259.44862 C 534.28571,251.96109 532.52824,247.08822 528.15038,242.43739 C 525.35429,239.46696 523.08381,233.73131 523.71249,231.22647 C 524.00065,230.07834 525.60511,227.70675 527.27796,225.95627 C 530.5724,222.50896 530.60387,220.70893 527.48843,213.91772 C 525.55643,209.70624 521.71474,208.02102 512.09851,207.16672 C 508.07647,206.8094 503.88571,206.02452 502.78571,205.42254 C 501.68571,204.82057 497.90454,204.09465 494.38311,203.80939 L 487.9805,203.29075 L 485.97666,197.79075 C 483.77429,191.74583 483.39774,184.56562 485.17105,182.42891 C 486.76044,180.51381 485.23047,162.53218 483.13931,158.54993 C 480.42475,153.38053 467.63174,146.77857 455.51295,144.29307 C 453.08385,143.79487 451.75095,142.67693 450.34231,139.9563 C 447.22117,133.92816 438.37668,126.01708 432.2582,123.78069 C 429.26386,122.68623 426.02009,121.79075 425.04983,121.79075 C 424.07956,121.79075 423.28571,121.31585 423.28571,120.73543 C 423.28571,120.155 420.84516,118.56278 417.86225,117.19716 C 412.07667,114.54843 408.38496,114.66843 404.99671,117.61534 C 403.31553,119.07754 403.46621,119.29546 407.49671,121.23104 L 411.78571,123.29075 L 411.49346,131.29075 L 411.20121,139.29075 L 405.24346,145.31766 C 401.9667,148.63245 399.28571,151.71032 399.28571,152.15736 C 399.28571,152.6044 398.35619,153.72285 397.2201,154.64279 C 395.47793,156.05352 395.31747,156.74409 396.19535,159.05309 C 397.37476,162.15516 401.18622,162.82048 403.28571,160.29075 C 403.9704,159.46575 405.1348,158.79075 405.87326,158.79075 C 408.0246,158.79075 421.43323,144.95506 421.1601,143.01704 C 420.937,141.43412 421.70456,136.8851 422.92775,132.54075 C 423.7398,129.65667 425.8494,130.53934 428.90282,135.04075 C 431.98293,139.58149 432.26953,143.01688 431.18324,162.37469 C 430.81877,168.86948 431.02329,169.80158 433.64236,173.58233 C 437.4584,179.09096 441.65285,180.5019 448.98436,178.74309 C 454.21052,177.48936 454.47693,177.52765 456.81102,179.86796 C 458.14,181.2005 459.35298,183.40296 459.50653,184.76233 C 459.73438,186.77951 459.17266,187.43728 456.45115,188.34014 C 452.07836,189.7908 451.31496,191.19773 451.32326,197.79075 C 451.33411,206.41201 454.41784,209.17189 465.33469,210.33074 C 468.88275,210.70737 472.73124,211.60645 473.88689,212.32868 C 475.04254,213.05092 477.51754,213.78784 479.38689,213.96629 C 482.69052,214.28166 482.78571,214.41456 482.78571,218.71171 L 482.78571,223.13267 L 477.12844,224.2623 C 474.01694,224.8836 470.77917,225.96625 469.93339,226.66819 C 467.72654,228.49971 465.96341,237.81284 467.20519,241.07896 C 467.75173,242.51648 468.3063,245.51276 468.43756,247.73738 C 468.65821,251.47695 468.27489,252.1416 463.35726,256.54612 C 458.47958,260.91488 457.99687,261.74142 457.53876,266.50896 C 457.14308,270.62692 457.48066,272.456 459.16247,275.30644 C 462.01614,280.14306 461.86828,281.10903 457.79914,284.21271 C 452.83229,288.00111 451.89536,290.3057 451.83719,298.87752 C 451.78863,306.0336 451.5591,306.79998 447.79387,312.37752 C 444.03902,317.9397 441.28571,323.15579 441.28571,324.70709 C 441.28571,325.08479 443.49468,326.32708 446.19454,327.46774 C 451.84056,329.85311 456.19136,335.66841 457.03482,341.95692 C 457.31765,344.06553 457.73714,345.79075 457.96704,345.79075 C 458.19693,345.79075 459.73258,345.0939 461.37959,344.2422 z M 457.53415,319.61494 C 455.74579,318.50938 454.50439,317.24594 454.77548,316.8073 C 455.04658,316.36866 458.19728,315.96583 461.77705,315.91213 C 468.75785,315.8074 470.00051,316.9289 466.45697,320.13576 C 464.10326,322.26584 461.58441,322.11882 457.53415,319.61494 z M 479.59827,314.00509 C 478.04836,313.01957 476.0734,307.78642 476.66729,306.23875 C 477.19977,304.85114 485.8355,301.67387 486.70667,302.54505 C 487.87273,303.71111 487.24031,308.41208 485.59367,310.81824 C 482.97349,314.64702 481.68497,315.33193 479.59827,314.00509 z M 497.27475,289.54075 C 493.91966,284.038 495.16038,279.5317 500.37594,278.27717 C 502.42181,277.78507 503.3094,278.17795 504.5993,280.1466 C 505.49752,281.51745 507.14442,282.92852 508.25907,283.28229 C 511.20129,284.21612 510.74436,287.22703 507.20898,290.20186 C 502.94082,293.79328 499.7376,293.58011 497.27475,289.54075 z M 472.19297,289.54075 C 471.72182,283.19012 472.65835,279.16687 475.21699,276.54983 C 478.44325,273.24994 480.56684,273.64104 482.31303,277.8567 C 483.60858,280.98445 482.61597,283.43143 477.97905,288.54075 C 475.77169,290.97299 472.34319,291.56553 472.19297,289.54075 z M 507.78571,265.46467 C 501.20448,262.88939 500.77214,262.32795 500.96801,256.61131 C 501.24576,248.50477 502.38304,240.79075 503.30044,240.79075 C 505.25135,240.79075 507.28571,242.10977 507.28571,243.37469 C 507.28571,244.12816 508.3656,245.45222 509.68547,246.31703 C 512.96699,248.46716 517.28571,255.21526 517.28571,258.19258 C 517.28571,260.48307 512.90145,266.88207 511.44682,266.71467 C 511.08321,266.67283 509.43571,266.11033 507.78571,265.46467 z M 504.78571,226.63602 C 501.7532,224.97736 500.28571,222.70198 500.28571,219.65864 C 500.28571,216.0119 500.9241,215.76393 506.79591,217.12994 C 513.38079,218.66183 514.28571,219.35589 514.28571,222.87452 C 514.28571,225.13791 513.67824,226.07121 511.72061,226.8155 C 508.5022,228.03914 507.29385,228.00787 504.78571,226.63602 z M 306.65542,292.54075 C 307.86591,288.02385 307.33087,274.23477 305.86747,272.23345 C 305.08744,271.1667 304.2007,270.54242 303.89695,270.84618 C 303.25961,271.48351 303.1322,285.83719 303.72435,290.29075 C 303.94373,291.94075 304.15979,293.62825 304.20447,294.04075 C 304.38365,295.69493 306.09,294.65064 306.65542,292.54075 z M 329.35657,206.13693 C 337.24685,202.53019 339.26062,199.98989 333.739,200.60867 C 331.15948,200.89774 317.28571,208.25586 317.28571,209.33486 C 317.28571,210.69293 322.29003,209.36713 329.35657,206.13693 z M 426.28571,194.82593 C 426.28571,194.29528 425.27321,193.32929 424.03571,192.67928 C 422.79821,192.02928 420.27595,190.1857 418.4307,188.58245 C 414.80697,185.43398 413.49242,185.43996 415.18215,188.59724 C 417.65673,193.22104 426.28571,198.06158 426.28571,194.82593 z M 832.474,140.17439 C 833.1676,139.74574 836.0371,139.08262 838.8507,138.70081 C 849.6337,137.23752 871.7076,123.15473 877.9108,113.78111 C 880.843,109.35026 881.292,104.36843 878.9685,102.04496 C 877.712,100.78849 876.139,101.70391 866.7625,109.14817 C 855.049,118.44792 846.632,123.26366 835.7857,126.87156 C 830.0632,128.77509 826.5958,129.2083 816.7857,129.24539 C 805.1944,129.28921 804.5748,129.18159 798.5935,126.08532 C 795.1878,124.32233 791.479,122.30388 790.3517,121.59987 C 788.5602,120.48108 787.9722,120.6497 785.6833,122.93859 L 783.0646,125.55731 L 785.6559,129.97909 C 788.3798,134.62705 793.4557,138.12871 800.6913,140.35139 C 805.1228,141.71266 830.2111,141.57294 832.474,140.17439 z M 383.1623,133.03364 C 385.20817,130.96722 388.7628,128.42842 391.06149,127.39186 C 395.99915,125.16529 396.81296,123.28259 395.18562,117.85102 C 392.76321,109.76572 387.45462,107.77804 378.64733,111.65865 C 372.34613,114.43503 363.76301,120.38323 362.84016,122.61319 C 362.06119,124.49549 363.9256,127.54168 366.32216,128.30232 C 367.44337,128.65818 369.4745,130.71365 370.83577,132.87004 C 374.21766,138.22732 377.97095,138.27713 383.1623,133.03364 z M -43.86351,129.69292 C -37.90537,127.6159 -39.97157,125.12563 -52.71429,119.02559 C -57.52547,116.72244 -63.18988,113.05721 -65.76657,110.57994 C -82.34422,94.641911 -93.53247,67.420021 -93.53247,43.023351 C -93.53247,34.658691 -94.20123,32.849531 -97.3093,32.806061 C -101.48235,32.747711 -105.0409,44.479631 -104.12941,55.290751 C -103.18828,66.453381 -97.06301,85.556031 -90.58616,97.527581 C -82.65753,112.18255 -67.94182,126.9988 -58.71429,129.61721 C -53.91912,130.97789 -47.64138,131.0099 -43.86351,129.69292 z M 893.9712,100.61644 C 897.1303,97.648691 896.9937,93.492861 893.6508,90.863331 C 890.1996,88.148551 888.3496,88.248911 885.0255,91.331221 C 881.5868,94.519771 881.5751,96.439591 884.9728,99.986031 C 888.199,103.3535 890.8594,103.53988 893.9712,100.61644 z M 905.457,85.135761 C 908.122,82.723921 907.8041,78.360431 904.8209,76.405761 C 897.7325,71.761281 892.8556,78.726751 899.3624,84.201861 C 902.9945,87.258011 903.0949,87.273401 905.457,85.135761 z M 233.70392,83.183761 C 236.09183,82.267441 235.60468,80.257111 232.6708,78.920351 C 230.02355,77.714181 226.28571,78.215281 226.28571,79.776351 C 226.28571,83.320581 229.49994,84.796981 233.70392,83.183761 z M 218.22141,79.851651 C 220.40688,78.468751 217.7307,75.790751 214.16327,75.790751 C 212.03958,75.790751 211.28571,76.271051 211.28571,77.624081 C 211.28571,78.632421 211.58571,79.757421 211.95238,80.124081 C 212.9055,81.077201 216.5338,80.919531 218.22141,79.851651 z M 912.2857,63.886721 C 912.2857,61.487711 908.7375,58.403381 906.8229,59.138081 C 904.6938,59.955131 904.8855,60.879551 907.8462,64.072591 C 910.5332,66.970351 912.2857,66.896981 912.2857,63.886721 z M 623.3222,37.754281 C 625.5835,35.493001 625.1481,33.790751 622.3085,33.790751 C 618.9315,33.790751 617.2857,34.972651 617.2857,37.397741 C 617.2857,40.445641 620.4443,40.632191 623.3222,37.754281 z M 642.7375,26.055811 C 643.4553,24.185341 640.8821,23.425391 637.5687,24.529291 C 634.5429,25.537371 633.3052,28.566711 635.3921,29.856501 C 636.867,30.768021 641.9357,28.145361 642.7375,26.055811 z M -89.57507,20.853401 C -87.63558,19.261781 -87.41702,18.592571 -88.35034,17.103401 C -89.19687,15.752711 -90.47112,15.371341 -93.35034,15.606981 C -98.42153,16.022011 -99.26273,17.024101 -97.19238,20.183851 C -95.16007,23.285551 -92.7924,23.493661 -89.57507,20.853401 z M 662.8429,15.698241 C 664.0757,13.703451 661.7365,12.628261 658.9378,13.903391 C 656.145,15.175911 655.4253,17.315581 657.5357,18.072291 C 658.968,18.585861 661.8569,17.293571 662.8429,15.698241 z M -78.89097,2.4278914 C -78.55492,0.72635143 -81.07752,0.22543143 -84.11419,1.3907114 C -85.29922,1.8454514 -85.43642,2.4414414 -84.681,3.8529514 C -83.92116,5.2727314 -83.15328,5.5191714 -81.44932,4.8901314 C -80.22005,4.4363314 -79.06879,3.3283214 -78.89097,2.4278914 z M 749.5009,-85.062599 C 751.3076,-86.631939 753.7982,-88.447779 755.0357,-89.097779 C 756.2732,-89.747789 757.2861,-90.826289 757.2865,-91.494429 C 757.288,-93.726369 763.0369,-104.66887 765.9291,-107.94473 C 767.7885,-110.05068 771.0474,-111.97078 775.2642,-113.44473 C 778.8273,-114.69022 781.6398,-116.15925 781.5142,-116.70925 C 780.9867,-119.0183 776.0342,-119.43802 769.6636,-117.71356 C 764.3965,-116.28784 761.8817,-114.7904 755.5255,-109.29506 C 745.964,-101.02853 743.3244,-96.673039 743.3022,-89.125919 C 743.2788,-81.196639 744.2885,-80.534789 749.5009,-85.062599 z M 799.6933,-125.27926 C 800.964,-126.46255 798.4749,-129.20925 796.1319,-129.20925 C 793.9722,-129.20925 792.7747,-126.98334 793.6738,-124.6403 C 794.283,-123.05268 797.6908,-123.41441 799.6933,-125.27926 z M 582.2857,855.46227 C 582.2857,855.06157 583.7266,851.93407 585.4876,848.51227 C 588.4071,842.83947 588.725,841.30867 589.0919,831.15537 C 589.3972,822.70647 589.0856,818.60517 587.8003,814.15537 C 585.3972,805.83587 579.46739,794.98557 575.05475,790.83382 C 572.95518,788.85841 571.28827,786.3335 571.28735,785.12726 C 571.28528,782.40017 578.66215,776.79075 582.2506,776.79075 C 589.6875,776.79075 598.409,789.53502 600.3496,803.23787 C 601.5917,812.00897 600.1508,826.66037 597.4232,832.99287 C 594.9707,838.68677 582.2857,857.51577 582.2857,855.46227 z M 39.9696,632.04075 C 39.73081,631.62825 39.21089,628.59075 38.81421,625.29075 C 38.41752,621.99075 37.62028,618.71506 37.04256,618.01143 C 35.77398,616.46639 39.69874,611.79075 42.26424,611.79075 C 43.16069,611.79075 45.94353,610.49107 48.44833,608.90257 C 54.77096,604.89288 70.26728,584.68916 76.55246,572.26111 C 80.0681,565.30941 88.0029,544.82718 89.41647,539.05502 C 90.05817,536.43467 91.59566,532.25821 92.8331,529.774 C 94.07055,527.28979 95.59596,523.35229 96.2229,521.024 C 97.40326,516.64049 98.89234,515.60207 99.97016,518.41082 C 101.13461,521.44532 95.23482,549.61049 88.1602,574.79075 C 81.90164,597.06644 63.15061,625.01412 50.4378,631.01453 C 46.68051,632.78796 40.73928,633.37039 39.9696,632.04075 z M 625.381,631.65981 C 618.5988,630.53402 614.5355,628.0398 608.7767,621.46753 C 599.5128,610.89503 589.733,586.16811 585.8154,563.41345 C 583.0991,547.63646 583.7305,510.59835 586.8445,503.04075 C 589.2067,497.30801 592.6985,499.59079 591.8159,506.29075 C 590.7411,514.44998 591.315,539.85092 592.7423,547.29075 C 596.6103,567.45248 597.5024,570.29979 604.4922,584.79075 C 608.7638,593.64644 610.7494,596.47061 617.1713,602.82493 C 626.2765,611.83421 633.2419,615.92372 636.2654,614.03548 C 637.3617,613.35088 639.1647,612.79075 640.2721,612.79075 C 641.9622,612.79075 642.2857,613.44822 642.2857,616.88302 C 642.2857,619.4611 641.5457,621.91608 640.2857,623.51788 C 639.1857,624.9163 638.2857,626.83004 638.2857,627.77062 C 638.2857,630.03433 635.1158,632.82042 632.707,632.67385 C 631.6503,632.60955 628.3536,632.15324 625.381,631.65981 z M 849.1665,245.04075 C 849.101,244.62825 848.9769,242.04075 848.8909,239.29075 C 848.693,232.96782 846.3843,228.25775 840.6933,222.56681 C 826.8677,208.7412 804.487,206.439 772.0293,215.50365 C 768.8633,216.38785 766.021,216.85941 765.7132,216.55157 C 764.5866,215.42495 769.2801,212.23143 773.9687,210.93446 C 776.6181,210.2016 780.8107,208.97443 783.2857,208.20742 C 791.3367,205.71242 806.5834,202.93579 815.7857,202.28876 C 822.5436,201.8136 827.5638,202.14066 835.9371,203.60158 C 852.6877,206.5241 862.3403,211.90861 867.9313,221.44893 C 871.0997,226.85538 870.5855,231.2408 866.1972,236.2388 C 861.5252,241.55982 849.5933,247.7266 849.1665,245.04075 z" id="path21226" style="fill:#000000"/>
  </g>
</svg>
